<svg xmlns="http://www.w3.org/2000/svg" width="289.288" height="200.035" viewBox="0 0 289.288 200.035">
  <g id="Pulpo" transform="translate(0.028)" style="isolation: isolate">
    <path id="Trazado_1" data-name="Trazado 1" d="M193.8,10.592a34.137,34.137,0,0,1,17.1-8.758C214.63,1.006,218.476.592,222.264,0h2.959c3.787,1.006,7.811.651,11.658,1.716,2.485.71,5.089.947,7.279,2.545.414,4.793-1.479,9.35-1.775,14.084h0c-3.018.237-5.8-.828-8.64-1.657-2.959-.888-4.852,1.657-7.456,2.071-1.065.178-.533,2.485-.473,3.846.118,2.6-1.3,4.32-3.432,4.32-4.438,0-8.4,1.894-12.6,2.663V29c1.479-2.545,3.018-4.971,4.32-7.575.828-1.6.888-2.84-1.6-3.2-2.071-.355-3.787.473-5.681.71a5.205,5.205,0,0,1,1.42-2.84c1.834-2.19,3.61-4.379,5.385-6.569.355-.414,1.006-.828.533-1.479-.355-.473-.888-.178-1.361,0-2.367.651-4.675,1.361-7.042,1.953-1.243.355-1.657.769-1.42,2.249.355,2.19,1.065,4.379.828,6.687-1.716-.3-3.432-.473-5.148-.828C193.918,16.806,193.918,16.747,193.8,10.592Z" transform="translate(-79.128)" fill="#2193c1"/>
    <path id="Trazado_2" data-name="Trazado 2" d="M189.689,17.9c.118,6.213.118,6.213,6.154,7.515,1.716.355,3.432.533,5.148.828h.592c1.184,3.432,1.834,7.1,4.142,10.06V36.9c1.184,2.19.059,4.438,0,6.628-.059,1.894.769,2.722,2.485,2.071,4.379-1.657,8.876-.473,13.315-.947,3.728-.414,3.787-.118,3.787-3.906V39.262c.059-3.077,1.3-4.083,4.32-3.432,1.716.414,3.373,1.124,5.148,1.006.237,3.2-.769,6.509,1.184,9.468-.592.769-1.184,1.6-1.775,2.367-1.3-.118-1.539,1.184-2.367,1.775-.828-1.006-1.716-.592-2.663-.178a42.721,42.721,0,0,1-5.681,2.367c-1.775.473-2.722.888-1.894,2.9.414,1.006-.355,1.6-1.184,2.071-3.077,1.657-5.74.237-5.681-3.314.059-2.84-2.012-3.018-3.787-3.61-.888-.3-1.953-.533-2.071.71-.237,1.894-1.539,1.894-2.959,2.012-3.491.414-4.024,1.243-3.314,4.616.178.71.414,1.3-.3,1.834-1.243-1.065-1.657-3.61-4.142-2.367-.414,0-.769-.059-1.184-.059-1.243-1.953-3.314-2.6-5.267-3.491-.651-.3-1.716.178-1.716-1.065,0-.947.769-1.3,1.6-1.361.414,1.834,1.894,1.006,3.018,1.184.414.888,1.361,1.657,2.071.947,2.19-2.249,5.5-1.6,7.989-3.551,2.485-1.894,1.243-2.426,0-3.491a8.4,8.4,0,0,0-2.367-1.006c-2.722-3.2-3.551-3.018-5.326,1.184a8.338,8.338,0,0,0-2.959,2.959,1.2,1.2,0,0,1-1.184.592c-.178-.592-.414-1.184-.592-1.775a69.147,69.147,0,0,0-3.136-8.225c-2.012-5.089-6.391-9.35-5.148-15.5C184.9,21.924,187.441,19.971,189.689,17.9Z" transform="translate(-75.018 -7.308)" fill="#2488bc"/>
    <path id="Trazado_3" data-name="Trazado 3" d="M197,233.458c4.852-7.574,12.782-10.829,20.534-14.261,5.5-2.426,11.6-3.314,16.806-6.569,2.071-1.243,4.379-2.19,5.681-4.379a2.168,2.168,0,0,0,.71-2.012c.178,0,.355-.059.592-.059,1.657-.059,2.19-1.834,3.491-2.367,1.657-.178,3.846.71,4.616-1.479.71-1.953,1.657-3.965,1.361-6.213-.237-1.716-1.3-3.077-2.012-4.557-.533-1.006-1.894-1.894-1.065-3.077.828-1.243,2.367-.533,3.61-.651,1.065-.059,1.6.651,2.012,1.479.828,1.657,1.657,3.373,2.545,5.03,2.426,4.912,1.184,9.586-3.077,12.96a85.213,85.213,0,0,1-18.522,10.711c-6.687,2.545-13.374,5.148-20.12,7.693-3.077,1.775-6.332,3.255-8.876,5.858-3.846,3.846-4.438,8.462-4.142,13.551a9.093,9.093,0,0,0,4.2,7.219,3.741,3.741,0,0,0,.592,2.367c-1.953.473-2.781-2.249-4.734-1.775-1.065-1.834-3.669-2.367-4.142-4.734,3.787-.237,2.367-3.077,2.13-4.852-.355-2.367-.71-4.734.3-6.924C200.669,233.576,199.545,233.044,197,233.458Z" transform="translate(-80.435 -76.642)" fill="#2193c1"/>
    <path id="Trazado_4" data-name="Trazado 4" d="M336.507,152.729c3.432,1.953,6.864,3.906,9.35,7.16a17.989,17.989,0,0,1,3.669,7.456,130.926,130.926,0,0,1-1.065,15.977c-.414,3.314-.414,6.924,1.539,10.06a17.535,17.535,0,0,0,7.219,7.87v1.6c-2.781-.414-4.438-2.6-6.509-4.142-4.912-4.912-6.332-11.007-5.918-17.634a28.349,28.349,0,0,0-4.734-17.812c-4.734-5.622-11.125-8.64-17.753-11.243-4.5-2.308-9.646-2.6-14.2-4.734a5.049,5.049,0,0,1-2.959-.592c-1.479-2.6-4.557-2.722-6.746-4.261-1.539-1.065-3.728-1.3-4.5-3.432,1.184.178,2.308.828,3.551.533,5.207,1.894,10.652,2.663,15.977,4.142,2.959,1.006,5.918,1.953,8.876,2.959,3.136,1.361,6.332,2.781,9.468,4.142A12.367,12.367,0,0,0,336.507,152.729Z" transform="translate(-119.993 -56.746)" fill="#2193c1"/>
    <path id="Trazado_5" data-name="Trazado 5" d="M111.15,200v.651a1.155,1.155,0,0,0-.414.059c-1.065,0-1.124.769-1.243,1.6a17.041,17.041,0,0,1-2.9,8.344c-.888,1.184-1.657,1.6-2.84.533-.651-.592-1.3-1.124-1.953-1.657,1.479-2.308,3.787-4.142,4.142-7.1,1.953-4.32.769-8.876,1.184-13.315.592-6.569,1.479-13.137,7.4-17.516.947-.71,1.775-1.479,2.663-2.249,4.083-2.367,8.225-4.5,12.9-5.444,4.142,1.775,8.344,3.61,12.486,5.385a8.713,8.713,0,0,1-1.3.592c-6.983,1.42-14.084,2.426-20.652,5.385-6.1,2.722-7.634,4.675-7.042,10-.178.769-.414,1.6-.592,2.367C112.1,191.653,109.73,195.559,111.15,200Z" transform="translate(-41.57 -66.911)" fill="#1e72b1"/>
    <path id="Trazado_6" data-name="Trazado 6" d="M362.593,144.237a14.01,14.01,0,0,1-4.793-1.894c3.846-1.6,8.048-2.249,11.835-4.024,1.834-.828,2.367-1.42.355-2.6a4.083,4.083,0,0,1-.947-1.065c3.077-1.657,6.568-2.426,9.586-4.32,4.557-2.9,8.166-7.16,13.433-8.936a48.777,48.777,0,0,0,4.793-2.071A32.971,32.971,0,0,0,405.2,118.2h5.858c.178,1.3-.592,2.959.533,3.906,1.3,1.065,1.243,2.308,1.243,3.669-5.563,0-11.066-.473-16.51,1.124a33.985,33.985,0,0,0-13.966,7.456C376.618,139.444,369.872,142.344,362.593,144.237Z" transform="translate(-146.08 -48.254)" fill="#1a5da6"/>
    <path id="Trazado_7" data-name="Trazado 7" d="M271.047,46.813c-1.953-2.959-.947-6.273-1.184-9.468,1.184-3.728,2.367-7.515,3.551-11.243h0c1.834-.355,3.61-.888,5.444-1.065,3.728-.355,7.219-.769,6.805-5.858,0-.059.118-.118.237-.178,1.6,1.953,3.728,3.432,4.734,5.918-.71,2.19,1.243,4.379,0,6.569-8.344.592-13.729,5.267-14.2,12.427a3.764,3.764,0,0,0-2.959,1.775C272.348,45.511,271.816,46.458,271.047,46.813Z" transform="translate(-110.159 -7.757)" fill="#2482b9"/>
    <path id="Trazado_8" data-name="Trazado 8" d="M121,105.06c.118-1.657,1.3-2.781,1.894-4.142,2.722,2.722,6.628,2.663,9.882,4.083,5.267.118,10.533-.888,15.741-1.006,3.373-.059,4.261-1.361,4.261-4.2,1.065-1.42.888-3.2,1.3-4.793.947,2.545,1.894,5.148,2.84,7.693-2.84,3.018-3.432,7.16-5.326,10.652a28.192,28.192,0,0,1-3.787-.355,103.125,103.125,0,0,0-14.143-2.071C128.752,110.682,124.255,109.143,121,105.06Z" transform="translate(-49.409 -38.783)" fill="#227cb7"/>
    <path id="Trazado_9" data-name="Trazado 9" d="M222.076,314.765a39.2,39.2,0,0,1-18.581-5.326c-4.32-2.6-7.456-6.332-10.77-9.823-1.657-1.716-.888-4.5-1.124-6.805-.355-3.551-1.657-7.16-.178-10.711a52.158,52.158,0,0,0,.947,7.515c1.361,5.03,5.74,7.752,9.468,10.77,6.036,4.852,13.492,5.858,20.948,6.45C222.491,309.5,223.319,312.221,222.076,314.765Z" transform="translate(-77.876 -115.165)" fill="#1c61a3"/>
    <path id="Trazado_10" data-name="Trazado 10" d="M38.556,126.671c-6.154-.118-12.249-.473-18.167,1.775-3.2,1.184-6.273,2.545-8.462,5.326-2.545-1.539-3.551-3.61-2.367-6.509,1.539-2.959,5.089-3.491,7.1-5.858,2.663-.118,5.148-1.124,7.693-1.834,5.8-.947,11.539-1.006,17.161,1.184,0,1.6,0,3.136-1.953,3.728C38.556,124.778,38.556,125.784,38.556,126.671Z" transform="translate(-3.712 -48.559)" fill="#1a5da6"/>
    <path id="Trazado_11" data-name="Trazado 11" d="M268.869,234c.473,2.071-.651,3.373-2.071,4.675-7.279,6.687-16.451,9.587-25.446,12.841-.947.355-2.13.3-2.722,1.361-2.249.473-4.734.059-6.569,1.894-7.1,1.124-13.078,4.793-18.759,8.876-1.894-.828-1.065-2.012-.3-3.077,1.3-1.775,3.255-2.781,4.912-4.083,6.273-4.793,14.025-5.681,21.126-8.225,4.379-1.6,9.054-2.367,13.137-4.734a33.367,33.367,0,0,0,11.066-5.918C264.963,236.19,266.5,234.414,268.869,234Z" transform="translate(-86.618 -95.528)" fill="#1a5da6"/>
    <path id="Trazado_12" data-name="Trazado 12" d="M293.293,179.055c.355,3.018,2.13,5.74,2.19,8.817-1.243,2.663-1.3,5.858-3.965,7.87a73.3,73.3,0,0,1-16.037,9.231c-.178-.828-.355-1.716-.533-2.545-.3-1.361.3-2.781,1.6-2.545,4.675.769,7.1-2.781,9.942-5.148,6.568-5.385,7.16-8.817,3.669-16.569-.888-1.953-1.6-3.965-2.426-5.918-.355-.769-.592-2.13-1.6-1.834-3.136.828-3.373-1.657-3.61-3.314a85.139,85.139,0,0,0-2.959-12.19c-.473-1.6-2.13-3.077-.533-4.912,3.373,5.148,6.687,10.3,10.06,15.5-.237,1.243-3.906.414-2.012,2.663,2.19,2.6,3.314,5.681,4.971,8.462A3.084,3.084,0,0,0,293.293,179.055Z" transform="translate(-112.226 -61.236)" fill="#2482b9"/>
    <path id="Trazado_13" data-name="Trazado 13" d="M344.27,103.9c.533,1.42,1.834,2.545,1.775,4.2-1.775,3.669-5.326,5.207-8.7,5.681-7.1,1.006-14.261,1.775-21.362,3.136-.828-1.361-.533-2.84-.592-4.32-.118-1.953.414-3.906-.592-5.8a104.713,104.713,0,0,0,19.232,1.243,7,7,0,0,0,4.379-1.184C341.192,107.391,342.613,105.379,344.27,103.9Z" transform="translate(-128.526 -42.416)" fill="#2179b5"/>
    <path id="Trazado_14" data-name="Trazado 14" d="M243.7,321.664c1.243-2.545.414-5.267.651-7.87.178,0,.414-.059.592-.059,1.006-.177,1.953-.414,2.959-.592a64.994,64.994,0,0,0,10.06-1.716c4.5-1.539,8.462-3.728,11.3-7.693,2.367-.71,1.479-3.432,2.84-4.734.651,10.829-6.391,17.812-15.445,20.416-3.728,1.065-7.575,1.775-11.362,2.6A1.5,1.5,0,0,1,243.7,321.664Z" transform="translate(-99.5 -122.064)" fill="#1a5da6"/>
    <path id="Trazado_15" data-name="Trazado 15" d="M442.548,235.9c1.953,2.722.888,5.977,1.657,8.936-.355.118-.828.118-1.065.355-6.1,6.687-14.261,7.4-22.487,7.87-.651-.828-1.6-.473-2.485-.592-5.267-.533-10.415-1.361-15.267-3.551a18.179,18.179,0,0,0,1.775-4.734c9.291,3.373,18.759,4.5,28.523,2.367C439.412,245.25,442.489,242,442.548,235.9Z" transform="translate(-164.492 -96.304)" fill="#1d6eb0"/>
    <path id="Trazado_16" data-name="Trazado 16" d="M76.826,225.959a1.155,1.155,0,0,0,.414-.059c.414,6.036.414,11.954-3.314,17.161-1.894-1.124-3.373-.888-4.912.947-2.545,2.959-6.332,4.2-9.882,5.563-8.225,3.136-16.865,3.2-25.5,2.959-3.314-2.012-7.575-1.894-10.652-4.616-1.006-.947-1.834-2.367-3.551-2.485-1.124-1.479-.533-3.077-.533-4.675,1.894,2.071,3.432,4.557,6.391,5.267.651,1.361,2.071,1.479,3.255,1.716,5.858,1.124,11.6,2.249,17.694,1.361,7.634-1.124,14.735-3.2,21.244-7.279,1.3-.828,2.012-2.485,3.669-2.84,2.426-.473,3.669-2.19,4.379-4.32A21.617,21.617,0,0,0,76.826,225.959Z" transform="translate(-7.661 -92.222)" fill="#1962aa"/>
    <path id="Trazado_17" data-name="Trazado 17" d="M179.006,93.712c-.947-2.545-1.894-5.148-2.84-7.693.059-4.379-1.42-8.64-1.184-13.019a5.15,5.15,0,0,1,.533.651c1.953,4.32,4.793,6.924,9.942,5.207.3,1.184-.414,2.545.71,3.61.178.178.414.355.592.533-.059.828-1.834,1.243-.651,2.426.651,2.6,3.136,3.61,4.734,5.385-.533.947-1.894.118-2.367,1.184-.414,1.006-.769,2.012-1.184,2.959l-1.775,4.083C182.616,98.209,181.551,95.073,179.006,93.712Z" transform="translate(-71.436 -29.802)" fill="#1c61a3"/>
    <path id="Trazado_18" data-name="Trazado 18" d="M303.653,75.5a57.432,57.432,0,0,1-1.184,10.533c-.828,2.6-1.6,5.148-2.426,7.752-2.545,1.361-3.373,4.557-5.918,5.918a11.535,11.535,0,0,1-2.367-4.734,1.724,1.724,0,0,0-1.716-1.184c0-.237-.059-.473-.059-.71.059-.888-.947-1.124-1.184-1.775,1.42-1.775,4.142-2.426,4.32-5.207,1.124-1.243-.3-1.657-.769-2.426.651-2.189.651-3.965-2.308-4.083.651-1.894,2.308-.947,3.255-.769,5.977,1.124,5.977,1.184,9.231-3.491C303.061,74.5,303.476,74.26,303.653,75.5Z" transform="translate(-117.911 -30.47)" fill="#1a5da6"/>
    <path id="Trazado_19" data-name="Trazado 19" d="M118.087,162.894a31.513,31.513,0,0,1-2.663,2.249c-5.977,4.379-6.805,10.888-7.4,17.516-.414,4.438.71,8.995-1.184,13.315-1.006.414-1.953.769-2.959,1.184-.237-3.018,1.479-5.858.592-8.876,2.071-4.734.888-9.823,1.657-14.676.473-2.959,1.243-5.5,3.255-7.634,1.184-1.243,2.663-2.308,4.261-3.669-1.361-.592-2.012-.947-2.722-1.243,1.657-1.539,4.142-1.716,5.622-3.491,1.834-.237,3.373-1.184,5.03-1.834,3.906-1.716,7.693-3.669,11.835-4.734,2.959-.947,5.977-1.953,8.936-2.9-.059.828-.71,1.006-1.361,1.3-6.154,2.545-12.249,5.148-18.345,7.634C119.98,158.1,118.087,159.7,118.087,162.894Z" transform="translate(-42.412 -60.461)" fill="#2193c1"/>
    <path id="Trazado_20" data-name="Trazado 20" d="M223.855,300.181c-.178,0-.414.059-.592.059-7.456-.651-14.912-1.6-20.948-6.45-3.728-3.018-8.107-5.74-9.468-10.77a53.246,53.246,0,0,1-.947-7.515c0-3.551.651-6.864,2.9-9.7.355,2.19-1.184,3.965-1.124,6.036a1.33,1.33,0,0,0,.533,1.184c.237,2.367.414,4.734.651,7.1.473,2.367,3.077,2.9,4.142,4.734,4.852,6.332,11.421,9.35,19.173,10.06C222.967,295.27,223.027,295.21,223.855,300.181Z" transform="translate(-78.353 -108.511)" fill="#2482b9"/>
    <path id="Trazado_21" data-name="Trazado 21" d="M42.239,137.1c2.663,4.734.888,9.172-4.557,11.717a37.768,37.768,0,0,1-21.6,3.373c-.414-2.13-.769-4.261-1.184-6.391,2.959,0,5.918.118,8.876.059a31.977,31.977,0,0,0,13.847-3.491C39.813,141.42,42,140,42.239,137.1Z" transform="translate(-6.094 -55.97)" fill="#1a5da6"/>
    <path id="Trazado_22" data-name="Trazado 22" d="M103.223,145.019c-1.657.592-3.2,1.6-5.03,1.834-3.2-1.184-6.391-2.367-9.527-3.551a37.9,37.9,0,0,1-11.894-7.279c-5.089-4.557-11.421-6.628-17.871-8.107,0-.888,0-1.894,1.006-2.189,1.953-.592,1.953-2.19,1.953-3.728h1.184c2.367,1.065,4.912,1.539,7.1,2.959.533,3.787,3.846,5.089,6.273,7.338a38.919,38.919,0,0,0,17.4,9.291c.355.533,1.006.414,1.539.592C97.956,143.185,100.915,143.244,103.223,145.019Z" transform="translate(-24.057 -49.805)" fill="#1c61a3"/>
    <path id="Trazado_23" data-name="Trazado 23" d="M67.315,226.551a12.452,12.452,0,0,0,.355,1.42c.355.947.828,1.894-.178,2.6a2.83,2.83,0,0,1-3.255.414c-9.764-4.971-18.818-2.308-27.576,2.663-1.834,1.065-2.722,3.2-3.491,5.207-.414-.178-.828-.414-1.184-.592a11.2,11.2,0,0,1,.71-3.965c.533-1.834,2.9-3.077,2.545-4.793-.592-2.84,1.184-3.314,2.84-4.261A20.25,20.25,0,0,1,44.414,223c.237,1.006-1.243,1.539-.769,2.84,1.657-.3,3.373-.592,5.089-.828,4.971-.769,9.942-.888,14.5,1.539C64.771,227.438,65.895,227.616,67.315,226.551Z" transform="translate(-13.062 -91.038)" fill="#1a5da6"/>
    <path id="Trazado_24" data-name="Trazado 24" d="M120.9,197.829c.178-.769.414-1.6.592-2.367,1.834-1.361,3.077-3.314,5.5-4.2a40.765,40.765,0,0,1,13.255-2.249,293.592,293.592,0,0,1,29.765.533v.592c.178,1.065.355,2.19.592,3.255a2.357,2.357,0,0,1-1.894-.118.955.955,0,0,0-.533-.178c-9.231-.651-18.4-.651-27.635-.592a47.346,47.346,0,0,0-10.415,1.3,12.005,12.005,0,0,0-7.93,5.326C122.084,198.361,121.728,197.829,120.9,197.829Z" transform="translate(-49.368 -77.11)" fill="#1a5da6"/>
    <path id="Trazado_25" data-name="Trazado 25" d="M27.294,235.108c.414.178.828.414,1.184.592,2.19,1.834,5.089,2.071,7.634,2.249,9.113.71,17.989-.355,26.037-5.148,3.2-1.953,6.036-4.32,6.983-8.225.237-.059.533-.059.769-.118,1.006-.414,1.953-.769,2.959-1.184-.355,2.959-2.663,4.793-4.142,7.1-2.071,1.657-3.906,3.551-6.391,4.675A53.358,53.358,0,0,1,42.5,239.9c-4.971.3-9.764-.651-14.616-1.243a5.232,5.232,0,0,0-2.367-2.012c-3.077-1.775-5.444-4.024-4.793-8.048a10.53,10.53,0,0,1,5.681-7.634c6.154-3.255,12.486-6.273,19.765-5.8-.71,2.249-3.136.178-4.142,1.657-2.308,0-4.616.237-6.509,1.775a14.289,14.289,0,0,0-7.1,2.959c-5.267,2.485-6.509,9.054-2.367,12.427A2.114,2.114,0,0,0,27.294,235.108Z" transform="translate(-8.428 -87.82)" fill="#248ebf"/>
    <path id="Trazado_26" data-name="Trazado 26" d="M120.677,112c3.255,4.083,7.693,5.622,12.723,5.858a103.125,103.125,0,0,1,14.143,2.071,28.192,28.192,0,0,0,3.787.355V123.3a15.465,15.465,0,0,1-8.817,2.367c-.828-.059-1.775-.237-2.426.592-.592,0-1.184.059-1.716.059-.237-.059-.414-.059-.651-.118-.769-2.19-2.959-1.953-4.557-2.485-4.261-1.42-7.752-4.379-12.072-5.681h.059c0-.828.355-1.716-.473-2.426A3.728,3.728,0,0,1,120.677,112Z" transform="translate(-49.085 -45.723)" fill="#1b68ac"/>
    <path id="Trazado_27" data-name="Trazado 27" d="M43.084,264c8.64.237,17.22.178,25.5-2.959,3.551-1.361,7.279-2.545,9.882-5.563,1.539-1.834,3.018-2.071,4.912-.947a31.486,31.486,0,0,1-17.93,11.717C58,268.2,50.54,268.969,42.906,267.431a3.864,3.864,0,0,1-1.006-.473C43.794,266.6,42.847,265.064,43.084,264Z" transform="translate(-17.117 -103.632)" fill="#1a5da6"/>
    <path id="Trazado_28" data-name="Trazado 28" d="M36.145,129.67c-.237,2.9-2.426,4.261-4.616,5.326a32.4,32.4,0,0,1-13.847,3.491c-2.959,0-5.918-.059-8.876-.059-3.2-1.361-6.569-2.367-8.817-5.267-.3-6.332,3.432-11.717,9.882-14.261l.118.118c-.178,1.6-1.6,1.775-2.663,2.426-3.373,2.19-3.728,3.491-1.539,5.8-1.184,2.9-.178,4.971,2.367,6.509,5.444,2.249,11.007,2.13,16.569.828,3.551-.828,6.924-1.953,9.291-5.089C34.843,128.427,35.553,128.368,36.145,129.67Z" transform="translate(0 -48.54)" fill="#2488bc"/>
    <path id="Trazado_29" data-name="Trazado 29" d="M314.8,119.917c7.1-1.361,14.2-2.13,21.362-3.136,3.373-.473,6.983-2.071,8.7-5.681.947,2.249.414,4.379-.414,6.509-6.391.178-10.415,5.444-15.977,7.456-.059,0-.059.178-.059.3a64.075,64.075,0,0,1-11.184-1.243c-1.775-.828-3.551-1.6-5.326-2.426C312.255,120.036,313.734,120.331,314.8,119.917Z" transform="translate(-127.342 -45.356)" fill="#1962aa"/>
    <path id="Trazado_30" data-name="Trazado 30" d="M446.714,113.8c5.148.355,9.35,2.722,13.137,5.977,2.13,1.834,2.959,4.379,3.255,7.1-2.012,2.308-3.728,4.912-7.16,5.5-1.3.237-1.006,1.716-1.065,2.722-2.367.237-4.734.414-7.1.651a49.192,49.192,0,0,1-6.687-.71c-5.207-1.243-10.652-2.189-13.492-7.693.3-1.124.828-1.894,1.894-.828,5.207,5.326,11.835,5.858,18.7,5.622,2.545-.118,5.267.473,7.279-1.775,3.136-1.716,3.314-4.379.592-8.285,2.071-1.6,1.657-2.722-.473-3.906a31.988,31.988,0,0,0-5.089-2.663C449.2,115.22,447.6,115.22,446.714,113.8Z" transform="translate(-174.575 -46.458)" fill="#2488bc"/>
    <path id="Trazado_31" data-name="Trazado 31" d="M185.126,70.794c-5.148,1.716-7.989-.888-9.942-5.207a2.847,2.847,0,0,0-.533-.651c-1.006-1.184-.237-2.545,0-3.61.651-2.722.651-5.563,1.716-8.225,1.775.178,2.308,1.834,2.84,3.018,1.716,4.024,4.971,5.977,8.936,7.042.178.592.414,1.184.592,1.775h0c-.769,0-1.184.355-1.184,1.124h0c-.828.118-1.6.414-1.6,1.361,0,1.184,1.065.769,1.716,1.065,1.953.828,4.024,1.539,5.267,3.491l-.651.651a5.381,5.381,0,0,1-2.959-1.834C187.907,70.143,186.546,68.663,185.126,70.794Z" transform="translate(-71.106 -21.678)" fill="#1d6eb0"/>
    <path id="Trazado_32" data-name="Trazado 32" d="M389.062,225.056a19.924,19.924,0,0,1-1.775,4.734c-1.361-.71-2.781-1.3-4.142-2.071-1.716-1.006-3.077-.828-4.142.888a24.569,24.569,0,0,1-6.687-7.693c-1.243-2.012-.828-4.557-2.249-6.509-.592-1.6-.3-3.255-.178-4.912a5.464,5.464,0,0,0,.178-3.491c-1.3-4.852-2.012-10-5.267-14.143.414-1.006.769-1.953,1.184-2.959a4.308,4.308,0,0,1,1.065,1.006c2.781,4.438,3.669,9.527,4.142,14.5a109.745,109.745,0,0,0,1.3,11.658,7.819,7.819,0,0,0,3.314,5.03c1.716,1.184,2.367-1.6,3.787-2.012,2.071,1.539,3.728,3.787,6.509,4.142C387.109,223.873,388.115,224.465,389.062,225.056Z" transform="translate(-148.938 -77.117)" fill="#1e72b1"/>
    <path id="Trazado_33" data-name="Trazado 33" d="M301.2,66.261c-.177-1.243-.592-1.006-1.184-.178-3.314,4.734-3.255,4.616-9.231,3.491-.888-.178-2.6-1.124-3.255.769-1.361,1.006-2.781,1.953-4.142,2.959-.178-.592-.414-1.124-.592-1.716,2.663-1.243,4.438-4.142,7.87-3.728-.059-2.012-1.894-2.663-2.545-4.024a7.541,7.541,0,0,1,.059-1.184,10.659,10.659,0,0,0,7.752-5.385C297,55.432,297.772,53.42,299.428,52h.414c.651,3.373,1.42,6.746,1.834,10.119C301.855,63.421,302.328,65.019,301.2,66.261Z" transform="translate(-115.462 -21.229)" fill="#1b68ac"/>
    <path id="Trazado_34" data-name="Trazado 34" d="M204.392,194.255c-.178-1.065-.355-2.189-.592-3.255a24.414,24.414,0,0,1,8.876,2.367c2.367.592,4.675,1.42,6.983,2.19,3.314,1.124,6.509,2.9,10.178,2.545.651,1.3,1.953,1.539,3.136,1.894a21.319,21.319,0,0,1,10.533,7.634,2.168,2.168,0,0,1-.71,2.012.443.443,0,0,1-.3-.059c-4.912-5.03-11.6-6.45-17.812-8.7C218,198.515,211.2,196.444,204.392,194.255Z" transform="translate(-83.211 -77.974)" fill="#1c61a3"/>
    <path id="Trazado_35" data-name="Trazado 35" d="M403.759,235.371c-1.006-.592-1.953-1.184-2.959-1.775V232a42.351,42.351,0,0,0,22.546,5.03c3.61-.118,7.4-.237,10.652-2.308l1.065-.533a1.864,1.864,0,0,0,1.184-1.124c3.018-1.716,3.491-4.083,2.308-7.279a10.132,10.132,0,0,0-4.083-5.148c-.3-.355-.592-.888-.947-1.065-4.852-1.894-9.7-4.024-15.031-4.32-.888-.059-2.071.355-2.367-1.065,8.521-.3,15.977,2.6,22.724,7.575a7.186,7.186,0,0,1,2.781,5.267c-.059,6.1-3.136,9.35-9.409,10.711C422.518,239.868,413.049,238.744,403.759,235.371Z" transform="translate(-163.634 -87.431)" fill="#248ebf"/>
    <path id="Trazado_36" data-name="Trazado 36" d="M320.9,125.258a65.366,65.366,0,0,0,11.184,1.243c2.13,1.065,4.379.3,6.569.473,8.876.3,17.516-.414,25.031-5.858a43.2,43.2,0,0,1,13.729-6.805,4.71,4.71,0,0,1,2.012-.237c-.178.355-.414.71-.592,1.065-4.142,1.479-8.225,3.018-11.658,5.977-4.5,3.787-9.586,6.45-15.5,7.042-3.846,1.184-7.811,1.184-11.776,1.184-1.184,0-2.545-.473-3.61.533a79.47,79.47,0,0,0-12.427-.592h0C324.451,126.856,321.078,127.211,320.9,125.258Z" transform="translate(-131.016 -46.554)" fill="#2193c1"/>
    <path id="Trazado_37" data-name="Trazado 37" d="M426.884,136.9c2.84,5.444,8.285,6.391,13.492,7.693a50.221,50.221,0,0,0,6.687.71c.3,2.249-1.479,4.142-1.183,6.391-6.45-.651-12.723-1.775-17.753-6.509C425.345,142.581,424.99,140.391,426.884,136.9Z" transform="translate(-173.8 -55.888)" fill="#1c61a3"/>
    <path id="Trazado_38" data-name="Trazado 38" d="M449.312,257a11.86,11.86,0,0,1-6.628,8.225c-8.285,4.083-16.983,4.32-25.8,2.249a5.49,5.49,0,0,1,.592-3.373h3.551c5.444,1.065,11.007,1.243,16.155-.828,4.024-1.657,8.64-2.485,11.658-6.154C448.838,257,449.134,257,449.312,257Z" transform="translate(-170.19 -104.918)" fill="#1a5da6"/>
    <path id="Trazado_39" data-name="Trazado 39" d="M275.859,231.2A75.763,75.763,0,0,0,291.9,221.97c2.722-2.012,2.722-5.207,3.965-7.87,2.012,4.142,1.183,8.048-1.006,11.835-2.367.414-3.906,2.19-5.622,3.551a35.676,35.676,0,0,1-11.066,5.918c-1.775-.533-1.42-2.485-2.367-3.551C275.8,231.557,275.859,231.379,275.859,231.2Z" transform="translate(-112.604 -87.404)" fill="#1b68ac"/>
    <path id="Trazado_40" data-name="Trazado 40" d="M382.676,87c.473,8.048-2.9,9.35-10.474,10.119a29.125,29.125,0,0,1-10.119-.592c-1.894-1.6-2.249-4.261-4.083-5.918a55.606,55.606,0,0,1,8.225,1.42c1.184.355,2.426.71,3.551-.3h3.551c1.006-.237,1.953-.414,2.959-.651A8.551,8.551,0,0,0,382.676,87Z" transform="translate(-146.162 -35.517)" fill="#1962aa"/>
    <path id="Trazado_41" data-name="Trazado 41" d="M424.737,229.575c-5.74-1.3-11.421-3.077-17.457-1.657a15.372,15.372,0,0,0-3.314,1.006c-1.479.769-2.722,2.012-4.5.828s-.355-2.84-.71-4.2c1.479.533,2.722.888,3.491-1.124.533-1.42,2.012-2.012,3.491-2.426-.059,1.6,0,2.663,2.249,2.012a10.81,10.81,0,0,1,4.616-.651,71,71,0,0,1,12.664,2.249C425.151,226.912,424.974,228.213,424.737,229.575Z" transform="translate(-162.718 -90.63)" fill="#1a5da6"/>
    <path id="Trazado_42" data-name="Trazado 42" d="M399.759,253.9a5.641,5.641,0,0,0-.592,3.373c-9.942-1.6-18.345-5.918-23.67-14.735-1.834-3.018-2.012-6.864-1.834-10.533,1.42,1.953,1.006,4.5,2.249,6.509A26.065,26.065,0,0,0,382.6,246.2c2.249,2.426,5.267,3.669,8.285,4.734C393.842,251.942,397.037,252.238,399.759,253.9Z" transform="translate(-152.534 -94.712)" fill="#1c61a3"/>
    <path id="Trazado_43" data-name="Trazado 43" d="M288.286,14.183c-.059.059-.237.118-.237.178.414,5.089-3.077,5.5-6.805,5.858a55.31,55.31,0,0,0-5.444,1.065c.3-4.734,2.19-9.291,1.775-14.084C281.54,8.916,285.327,10.869,288.286,14.183Z" transform="translate(-112.604 -2.939)" fill="#248ebf"/>
    <path id="Trazado_44" data-name="Trazado 44" d="M117.016,127.445c.592,0,1.184-.059,1.716-.059,1.184,1.065,2.6.473,3.965.533,1.3.059,2.071.355,2.012,1.834a4.039,4.039,0,0,1-1.3.533c-8.107-.118-16.273.71-24.38-.651-5.622-.888-11.243-2.13-15.741-5.858A47.193,47.193,0,0,0,67.9,115.551a2.427,2.427,0,0,1,.059-.651,28.038,28.038,0,0,1,12.368,4.971c6.45,4.675,13.433,7.575,21.422,7.752a3.285,3.285,0,0,1,1.124.414,7.6,7.6,0,0,0,6.509-.059h.651c.178,0,.355.059.592.059C112.755,128.57,115,129.516,117.016,127.445Z" transform="translate(-27.731 -46.907)" fill="#31aacd"/>
    <path id="Trazado_45" data-name="Trazado 45" d="M189.776,53.63c-3.965-1.065-7.219-3.018-8.936-7.042-.533-1.184-1.006-2.84-2.84-3.018.178-4.793.3-9.646,3.432-13.67-1.243,6.154,3.136,10.474,5.148,15.5C187.646,48.126,189.066,50.73,189.776,53.63Z" transform="translate(-72.678 -12.206)" fill="#2179b5"/>
    <path id="Trazado_46" data-name="Trazado 46" d="M305.143,194.485a3.269,3.269,0,0,1-1.243-2.426,4.7,4.7,0,0,1,2.959-1.657c2.545-.651,5.089-1.243,7.634-1.894a48.682,48.682,0,0,1,16.569,0h1.775a6.33,6.33,0,0,1-.592,3.61C323.014,190.461,314.019,191.822,305.143,194.485Z" transform="translate(-124.076 -76.666)" fill="#1a5da6"/>
    <path id="Trazado_47" data-name="Trazado 47" d="M459.777,153.409c-.3-2.249,1.479-4.142,1.184-6.391,2.367-.237,4.734-.414,7.1-.651,3.669-.473,6.805-1.953,8.758-5.267.414,8.048-3.55,11.894-12.959,12.368C462.558,153.527,461.138,153.409,459.777,153.409Z" transform="translate(-187.698 -57.603)" fill="#1a5da6"/>
    <path id="Trazado_48" data-name="Trazado 48" d="M245.478,267.794c1.834-1.835,4.32-1.42,6.569-1.894.769.178,1.716-.3,2.367.533a13.941,13.941,0,0,1,6.983,3.906c1.184,1.124,2.426,2.19,3.669,3.255a19.448,19.448,0,0,1,2.367,7.693c-.059,1.479-1.065,1.834-2.308,1.775.237-5.8-2.959-9.291-7.752-11.835-3.906-1.775-8.225-.71-12.249-1.834C244.827,268.859,245.182,268.326,245.478,267.794Z" transform="translate(-100.035 -108.551)" fill="#2488bc"/>
    <path id="Trazado_49" data-name="Trazado 49" d="M271.552,274.046c-1.243-1.065-2.485-2.13-3.669-3.255a13.515,13.515,0,0,0-6.983-3.906c6.036-.3,10.592,2.663,14.794,6.569.178.237.414.414.592.651h0a4.515,4.515,0,0,1,.473.651.637.637,0,0,1,.118.473c-.533,3.2,1.006,6.391-.059,9.586-.651,2.6-2.84,3.787-4.734,5.326,0-1.479-.3-2.19-1.775-.947-1.6,1.361-3.314,2.426-5.563,1.953,2.308-1.716,4.793-3.2,5.977-5.977a2.354,2.354,0,0,0,.828-1.6c1.243.059,2.249-.3,2.308-1.775,2.367-1.184,1.065-3.255.947-4.793a5.246,5.246,0,0,0-2.485-3.61C272.262,273.277,271.848,273.75,271.552,274.046Z" transform="translate(-106.521 -108.946)" fill="#2193c1"/>
    <path id="Trazado_50" data-name="Trazado 50" d="M109.711,98.983a36.24,36.24,0,0,1-14.5.118C91.07,98.391,88.94,95.965,89,92c.473.71.888,1.479,1.361,2.189a4.63,4.63,0,0,0,7.456.178h2.367c1.361.769,2.722-.414,4.142,0H106.1c1.539,1.6,3.314-1.006,4.912.355-.118,1.361-1.361,2.367-1.3,3.787A.653.653,0,0,0,109.711,98.983Z" transform="translate(-36.344 -37.558)" fill="#1a5da6"/>
    <path id="Trazado_51" data-name="Trazado 51" d="M312.309,112.9c-1.065.414-2.6.118-2.959,1.775-1.361.178-2.426-.651-3.551-1.184a78.632,78.632,0,0,0,1.184-11.835c.828-2.6,1.6-5.148,2.426-7.752,1.124,1.657.533,3.846,1.716,5.444,0,1.124,0,2.308.059,3.432,1.006,1.834.473,3.846.592,5.8C311.836,110.055,311.481,111.534,312.309,112.9Z" transform="translate(-124.851 -38.334)" fill="#1d6eb0"/>
    <path id="Trazado_52" data-name="Trazado 52" d="M452.1,254.591c-.177.059-.473,0-.592.118-3.018,3.669-7.634,4.5-11.658,6.154-5.089,2.071-10.711,1.894-16.155.828.118-1.479,1.479-1.243,2.367-1.657.947-.414,2.13.3,2.959-.71,8.225-.533,16.392-1.243,22.487-7.87.237-.237.71-.237,1.065-.355C452.992,252.284,452.519,253.408,452.1,254.591Z" transform="translate(-172.983 -102.509)" fill="#1962aa"/>
    <path id="Trazado_53" data-name="Trazado 53" d="M124,91.871v-.414c2.19-1.243,2.426-3.965,4.2-5.5,1.479-.947,3.077-1.716,4.024-3.373,0-.178.059-.414.059-.592.178-.178.355-.414.533-.592h.059c2.781-1.361,3.373-2.959,2.249-6.45.118-.118.3-.237.414-.355,2.367-.178,2.9,1.6,3.61,3.255a40.722,40.722,0,0,1-6.569,7.693,12.505,12.505,0,0,0-3.018,3.551c-1.6,3.2-.947,4.438,2.663,4.793,1.065,1.006,2.426.355,3.551.651-.592.71-1.894.947-1.716,2.249-3.255-1.42-7.16-1.361-9.882-4.083A7.148,7.148,0,0,1,124,91.871Z" transform="translate(-50.633 -30.446)" fill="#2193c1"/>
    <path id="Trazado_54" data-name="Trazado 54" d="M449.494,125.675c0-1.361.118-2.6-1.243-3.669-1.183-.947-.355-2.6-.533-3.906a35.026,35.026,0,0,1,11.243,2.9,29.562,29.562,0,0,0-.651,7.219C455.411,127.331,452.453,126.5,449.494,125.675Z" transform="translate(-182.74 -48.213)" fill="#1962aa"/>
    <path id="Trazado_55" data-name="Trazado 55" d="M110.085,169.9c.71.3,1.361.651,2.722,1.243-1.6,1.361-3.077,2.426-4.261,3.669-2.012,2.13-2.781,4.675-3.255,7.634-.769,4.912.473,10-1.657,14.676a85.353,85.353,0,0,1-1.834-15.563A19.081,19.081,0,0,1,110.085,169.9Z" transform="translate(-41.57 -69.36)" fill="#31aacd"/>
    <path id="Trazado_56" data-name="Trazado 56" d="M389.576,80.79a8.45,8.45,0,0,1-6.391,4.083c-.118-1.243-1.065-1.184-1.953-1.124-1.065.118-1.006.947-1.006,1.716h-3.551c.118-1.3-1.479-1.006-1.775-1.894.947-.828,2.012-.414,3.077-.473,1.361-.059,2.722.118,3.669-1.184a3.863,3.863,0,0,0,2.13-.592c1.894-1.657,1.065-2.959-.473-4.32-1.775-1.539-4.024-1.834-5.977-2.781.414-.769.769-1.6,1.184-2.367,1.894-.414,3.314,1.243,5.148,1.243a3.354,3.354,0,0,0,1.834,2.071C388.1,76.115,389.1,78.245,389.576,80.79Z" transform="translate(-153.061 -29.307)" fill="#2482b9"/>
    <path id="Trazado_57" data-name="Trazado 57" d="M454.879,118.36a33.559,33.559,0,0,0-11.243-2.9h-5.858c-.059-1.065-.118-2.13-.177-3.136,1.6-1.065,3.255-.71,4.912-.178,2.781.355,5.444,1.184,8.285.888v-.059c.888,1.361,2.485,1.42,3.787,1.834a25.994,25.994,0,0,1,5.089,2.663c2.13,1.243,2.545,2.367.473,3.906A21.022,21.022,0,0,0,454.879,118.36Z" transform="translate(-178.658 -45.574)" fill="#227cb7"/>
    <path id="Trazado_58" data-name="Trazado 58" d="M335.8,82.693a11.407,11.407,0,0,1,2.367-4.793c-.118,1.42.71,2.485,1.243,3.61,2.19,2.367,4.024,5.089,7.042,6.509a21.118,21.118,0,0,0,1.124,2.663c1.006,1.834.947,3.373-1.065,4.379h-1.775C342.605,90.327,337.753,87.546,335.8,82.693Z" transform="translate(-137.099 -31.802)" fill="#2482b9"/>
    <path id="Trazado_59" data-name="Trazado 59" d="M135.423,95.937c-3.551-.355-4.2-1.6-2.663-4.793a12.506,12.506,0,0,1,3.018-3.551,43.007,43.007,0,0,0,6.569-7.693,6.076,6.076,0,0,1,1.42,2.9c-.3,2.545-1.716,4.438-3.136,6.45C139.033,91.617,136.547,93.274,135.423,95.937Z" transform="translate(-53.89 -32.618)" fill="#227cb7"/>
    <path id="Trazado_60" data-name="Trazado 60" d="M75.224,225.64c-1.42,1.006-2.545.888-4.2,0-4.557-2.426-9.527-2.367-14.5-1.539-1.716.3-3.373.592-5.089.828-.473-1.3,1.006-1.834.769-2.84V221.5c.769,0,1.539-.059,2.367-.059.592,0,1.184,0,1.775-.059,4.912-.947,9.823-1.065,14.261,1.657,1.42.828,2.6.237,3.965.237C74.573,224.1,75.579,224.693,75.224,225.64Z" transform="translate(-20.971 -90.127)" fill="#1b68ac"/>
    <path id="Trazado_61" data-name="Trazado 61" d="M424.31,214.059c.3,1.42,1.42,1.006,2.367,1.065,5.326.3,10.178,2.426,15.031,4.32.414.178.651.71.947,1.065-.177,1.006-.414,1.953-.592,2.959-.414-.178-.769-.414-1.184-.592-6.036-4.32-12.96-5.444-20.179-5.385.237-1.184.414-2.308.651-3.491C422.357,214,423.363,214.059,424.31,214.059Z" transform="translate(-171.758 -87.364)" fill="#2179b5"/>
    <path id="Trazado_62" data-name="Trazado 62" d="M100.049,87.345H97.682a55.982,55.982,0,0,1-8.995-3.61c-.237-4.2,1.775-7.042,5.385-8.936l.118.178c-.237,1.539-3.077,2.722-.651,4.675-.592,1.775-.592,3.255,1.775,3.491h0q.266.533.533,0c.237.059.473.059.71.118,2.13,2.308,5.03,1.184,7.575,1.775,0,.355-.059.71-.059,1.065C102.593,86.1,101.114,85.984,100.049,87.345Z" transform="translate(-36.209 -30.536)" fill="#2482b9"/>
    <path id="Trazado_63" data-name="Trazado 63" d="M76.8,220.933c-1.3,0-2.545.651-3.965-.237-4.438-2.722-9.35-2.6-14.261-1.657-.592.118-1.184.059-1.775.118v-2.367c1.006-1.479,3.432.592,4.142-1.657a21.32,21.32,0,0,1,13.729,3.491A4.089,4.089,0,0,1,76.8,220.933Z" transform="translate(-23.199 -87.788)" fill="#227cb7"/>
    <path id="Trazado_64" data-name="Trazado 64" d="M466.351,123a26.027,26.027,0,0,1,5.326,2.959c2.722,3.906,2.545,6.628-.592,8.285-1.775-1.361-3.551-2.722-5.385-4.083A29.352,29.352,0,0,1,466.351,123Z" transform="translate(-190.129 -50.214)" fill="#1c61a3"/>
    <path id="Trazado_65" data-name="Trazado 65" d="M336.1,105.408h1.775a1.2,1.2,0,0,0,.592,1.184,6.834,6.834,0,0,1-4.379,1.184,104.713,104.713,0,0,1-19.232-1.243c0-1.124,0-2.308-.059-3.432a121.918,121.918,0,0,0,15.977,2.781h2.959C334.506,105.763,335.334,105.585,336.1,105.408Z" transform="translate(-128.526 -42.09)" fill="#248ebf"/>
    <path id="Trazado_66" data-name="Trazado 66" d="M0,143c2.249,2.959,5.622,3.906,8.817,5.267.414,2.13.769,4.261,1.184,6.391-2.071-.592-4.261-.71-6.036-2.012C.592,150.219.059,146.728,0,143Z" transform="translate(-0.011 -58.379)" fill="#1c61a3"/>
    <path id="Trazado_67" data-name="Trazado 67" d="M351.8,192.61a5.876,5.876,0,0,0,.592-3.61c2.367,1.006,4.734,1.953,7.1,2.959,3.255,4.142,3.965,9.231,5.267,14.143a5.464,5.464,0,0,1-.177,3.491c-1.065-3.432-1.953-6.924-3.255-10.237C359.67,195.1,355.646,193.912,351.8,192.61Z" transform="translate(-143.631 -77.158)" fill="#1c61a3"/>
    <path id="Trazado_68" data-name="Trazado 68" d="M346.369,130.225c-2.19-.178-4.438.592-6.569-.473a.444.444,0,0,1,.059-.3c5.563-2.012,9.586-7.279,15.978-7.456-.355,4.2-4.379,4.616-6.864,6.569C348.144,129.219,346.96,129.279,346.369,130.225Z" transform="translate(-138.732 -49.805)" fill="#1a5da6"/>
    <path id="Trazado_69" data-name="Trazado 69" d="M137.8,97.978c1.124-2.663,3.61-4.32,5.207-6.628,1.361-2.012,2.84-3.965,3.136-6.45,2.249,3.373,1.065,6.628-.533,9.764-.71,1.361-1.657,2.6-2.485,3.906-.592,0-1.184.059-1.775.059C140.226,98.333,138.865,98.984,137.8,97.978Z" transform="translate(-56.267 -34.66)" fill="#1d6eb0"/>
    <path id="Trazado_70" data-name="Trazado 70" d="M142.737,106.059c.592,0,1.184-.059,1.775-.059,5.74.237,11.066-1.6,16.569-2.9,0,2.84-.947,4.142-4.261,4.2-5.267.118-10.474,1.065-15.741,1.006C140.843,107.006,142.086,106.769,142.737,106.059Z" transform="translate(-57.594 -42.09)" fill="#31aacd"/>
    <path id="Trazado_71" data-name="Trazado 71" d="M387.513,212.937c-1.894-3.136-1.894-6.687-1.539-10.06a131.711,131.711,0,0,0,1.065-15.977c3.136,4.438,2.13,9.35,1.716,14.2C388.341,205.067,387.927,209.032,387.513,212.937Z" transform="translate(-157.508 -76.3)" fill="#1e72b1"/>
    <path id="Trazado_72" data-name="Trazado 72" d="M34.074,266.1c-.237,1.065.71,2.6-1.243,2.959-5.267-.414-9.113-3.373-12.309-7.338A3.511,3.511,0,0,1,19.872,259c1.657.118,2.485,1.539,3.551,2.485C26.5,264.207,30.7,264.089,34.074,266.1Z" transform="translate(-8.107 -105.735)" fill="#1c61a3"/>
    <path id="Trazado_73" data-name="Trazado 73" d="M100.559,189.7a86.6,86.6,0,0,0,1.834,15.563c.888,3.018-.828,5.918-.592,8.876-.237.059-.533.059-.769.118-.592-4.5-1.006-8.995-1.834-13.433a18.989,18.989,0,0,1,.237-9.113A11.022,11.022,0,0,1,100.559,189.7Z" transform="translate(-40.329 -77.443)" fill="#2179b5"/>
    <path id="Trazado_74" data-name="Trazado 74" d="M302.31,35.469c1.243-2.19-.651-4.379,0-6.569,2.84,3.846,3.61,8.285,3.61,12.96l-.177.178c-2.545-.3-4.616,1.361-7.042,1.716C298.818,40.5,301.9,38.546,302.31,35.469Z" transform="translate(-121.953 -11.798)" fill="#2179b5"/>
    <path id="Trazado_75" data-name="Trazado 75" d="M132.47,130.917c-.178,0-.355-.059-.592-.059a6.232,6.232,0,0,1-.651-.414c-2.13-1.3-4.2-2.722-6.45-3.846a5.176,5.176,0,0,1-3.077-4.5c4.32,1.243,7.811,4.2,12.072,5.681,1.6.533,3.846.3,4.557,2.485C136.376,130.562,134.3,129.911,132.47,130.917Z" transform="translate(-49.694 -49.846)" fill="#1c61a3"/>
    <path id="Trazado_76" data-name="Trazado 76" d="M442.8,231.983c.177-1.361.414-2.722.592-4.083,1.775,1.006,3.551,1.953,5.326,2.959,2.308,2.485,4.2,5.207,3.551,8.876l-1.065.533C450.256,235.652,446.291,234.113,442.8,231.983Z" transform="translate(-180.781 -93.038)" fill="#1c61a3"/>
    <path id="Trazado_77" data-name="Trazado 77" d="M341.035,77.331c-.533-1.184-1.361-2.249-1.243-3.61a4.394,4.394,0,0,1,2.722-3.255c8.758-3.965,17.575-3.61,26.274.355a1.763,1.763,0,0,1,.414.651c-1.834,0-3.255-1.657-5.148-1.243-5.267-2.19-10.711-1.479-16.1-.769a8.726,8.726,0,0,0-3.728,1.6c-1.834,1.3-3.018,2.959-.888,5.089v1.184Z" transform="translate(-138.724 -27.624)" fill="#2193c1"/>
    <path id="Trazado_78" data-name="Trazado 78" d="M19.989,237.9c-.651,4.024,1.716,6.273,4.793,8.048a5.232,5.232,0,0,1,2.367,2.012c-.592,1.006-.828,2.19-1.775,3.018-2.959-.769-4.5-3.255-6.391-5.267C18.924,243.048,18.273,240.326,19.989,237.9Z" transform="translate(-7.692 -97.121)" fill="#1e72b1"/>
    <path id="Trazado_79" data-name="Trazado 79" d="M194.9,271.464c-.059-2.13,1.539-3.906,1.124-6.036a.5.5,0,0,1,.118-.414c2.545-.414,3.669.118,2.367,2.959-1.006,2.19-.651,4.557-.3,6.924.237,1.775,1.657,4.616-2.13,4.852-.237-2.367-.414-4.734-.651-7.1A1.161,1.161,0,0,0,194.9,271.464Z" transform="translate(-79.576 -108.139)" fill="#31aacd"/>
    <path id="Trazado_80" data-name="Trazado 80" d="M354.451,102.019a1.2,1.2,0,0,1-.592-1.184c2.012-1.065,2.13-2.545,1.065-4.379-.473-.828-.71-1.775-1.124-2.663.71-.473.592-1.184.651-1.894.533.3.947.828,1.657.651l.178.118c1.834,1.657,2.13,4.32,4.083,5.918a1.115,1.115,0,0,1-.118.473C358.534,100.481,357.114,102.492,354.451,102.019Z" transform="translate(-144.447 -37.517)" fill="#2193c1"/>
    <path id="Trazado_81" data-name="Trazado 81" d="M344.237,98.386c-.828.178-1.6.355-2.426.533.059-.888-.71-1.361-1.065-2.012-1.6-2.6-4.5-4.083-5.918-6.805.177-1.42-.592-2.9.473-4.2C337.313,90.812,342.166,93.593,344.237,98.386Z" transform="translate(-136.659 -35.068)" fill="#2179b5"/>
    <path id="Trazado_82" data-name="Trazado 82" d="M431.558,112.088c.059,1.065.118,2.13.177,3.136a32.971,32.971,0,0,1-8.344,1.124,3.741,3.741,0,0,0-.592-2.367,8.016,8.016,0,0,0,.118-1.184c.651,0,1.243-.888,1.894-.059,1.006-.118,2.308.651,2.722-1.006.592-.178,1.184-.355,1.834-.533.3,1.42,1.3,1.006,2.19.888Z" transform="translate(-172.616 -45.396)" fill="#3a93c3"/>
    <path id="Trazado_83" data-name="Trazado 83" d="M28.769,117.918c-2.545.651-4.971,1.716-7.693,1.834a2.151,2.151,0,0,1-1.184-2.426c1.243-1.006,3.432-.355,4.142-2.308.355-.059.71-.059,1.124-.118h3.669C28.769,115.906,28.769,116.912,28.769,117.918Z" transform="translate(-8.128 -46.907)" fill="#3a93c3"/>
    <path id="Trazado_84" data-name="Trazado 84" d="M405.983,219.918c-1.479.355-2.959,1.006-3.491,2.426-.769,2.012-2.071,1.657-3.491,1.124.828-3.432,3.432-5.148,6.332-6.569,1.065.947,2.9.178,3.61,1.775C408.291,219.859,406.693,218.794,405.983,219.918Z" transform="translate(-162.9 -88.548)" fill="#2179b5"/>
    <path id="Trazado_85" data-name="Trazado 85" d="M482.558,139.059c-2.012,3.314-5.089,4.793-8.758,5.267.059-1.065-.237-2.485,1.065-2.722,3.373-.592,5.089-3.2,7.16-5.5A3.112,3.112,0,0,1,482.558,139.059Z" transform="translate(-193.436 -55.562)" fill="#227cb7"/>
    <path id="Trazado_86" data-name="Trazado 86" d="M32.369,113.778H28.7a34.309,34.309,0,0,1,16.214-1.361c2.367.355,4.793.237,6.983,1.3a2.427,2.427,0,0,1-.059.651h-.592c-.888-.118-1.716-.237-2.6-.414A43,43,0,0,0,32.369,113.778Z" transform="translate(-11.728 -45.726)" fill="#2488bc"/>
    <path id="Trazado_87" data-name="Trazado 87" d="M88.7,89.9a59.457,59.457,0,0,0,8.995,3.61,4.63,4.63,0,0,1-7.456-.178c-.473-.71-.888-1.479-1.361-2.189Z" transform="translate(-36.222 -36.701)" fill="#1d6eb0"/>
    <path id="Trazado_88" data-name="Trazado 88" d="M279.492,302.326c1.834-1.539,4.083-2.722,4.734-5.326h2.249c0,.414.059.769.059,1.184-1.361,1.3-.533,4.024-2.84,4.734-1.6.178-3.2.414-4.793.592A7.365,7.365,0,0,1,279.492,302.326Z" transform="translate(-113.87 -121.248)" fill="#227cb7"/>
    <path id="Trazado_89" data-name="Trazado 89" d="M290.11,290.386h-2.249c1.065-3.2-.473-6.391.059-9.586C291.648,283.226,289.814,287.073,290.11,290.386Z" transform="translate(-117.505 -114.634)" fill="#2488bc"/>
    <path id="Trazado_90" data-name="Trazado 90" d="M334.9,93c1.42,2.722,4.32,4.2,5.918,6.805.414.651,1.124,1.124,1.065,2.012h-2.959c-.71-2.663-3.373-4.32-3.846-7.1C335.018,94.184,334.959,93.592,334.9,93Z" transform="translate(-136.731 -37.966)" fill="#1c61a3"/>
    <path id="Trazado_91" data-name="Trazado 91" d="M97.8,72.22c2.663-2.308,5.977-2.959,9.231-3.373,2.6-.355,5.326-.947,7.989,0v.473a44.788,44.788,0,0,0-8.876.592c-1.361.414-2.781.769-4.142,1.184a8.041,8.041,0,0,1-4.024,1.243Z" transform="translate(-39.937 -27.898)" fill="#2482b9"/>
    <path id="Trazado_92" data-name="Trazado 92" d="M119.248,204a1.228,1.228,0,0,1,1.243,1.3c-1.065,3.669-2.13,7.4-3.2,11.066C115.875,211.93,118.242,208.024,119.248,204Z" transform="translate(-47.715 -83.281)" fill="#1962aa"/>
    <path id="Trazado_93" data-name="Trazado 93" d="M413.41,217.491c-.71-1.6-2.6-.888-3.61-1.775A16.564,16.564,0,0,1,416.96,214c-.237,1.184-.414,2.308-.651,3.491Z" transform="translate(-167.309 -87.364)" fill="#3a93c3"/>
    <path id="Trazado_94" data-name="Trazado 94" d="M126.9,69.584V69.11c3.787-.473,7.1.3,9.764,3.136a2.573,2.573,0,0,1-.414.355A19.421,19.421,0,0,0,126.9,69.584Z" transform="translate(-51.817 -28.161)" fill="#2193c1"/>
    <path id="Trazado_95" data-name="Trazado 95" d="M22.777,115.1c-.71,1.953-2.9,1.3-4.142,2.308-.592,0-1.124.059-1.716.059l-.118-.118C18.516,115.869,20.646,115.573,22.777,115.1Z" transform="translate(-6.87 -46.989)" fill="#2488bc"/>
    <path id="Trazado_96" data-name="Trazado 96" d="M454.185,112.92c-2.84.3-5.563-.533-8.285-.888l.355-.533c.3.059.651.118.947.178C449.569,111.8,452,111.559,454.185,112.92Z" transform="translate(-182.046 -45.519)" fill="#2488bc"/>
    <path id="Trazado_97" data-name="Trazado 97" d="M133.409,136.9a7.6,7.6,0,0,1-6.509.059C129.03,136.959,131.22,136.9,133.409,136.9Z" transform="translate(-51.817 -55.888)" fill="#2193c1"/>
    <path id="Trazado_98" data-name="Trazado 98" d="M428.922,112.056c-.414,1.716-1.716.947-2.722,1.006C426.673,111.523,427.916,112.115,428.922,112.056Z" transform="translate(-174.004 -45.72)" fill="#2488bc"/>
    <path id="Trazado_99" data-name="Trazado 99" d="M421.385,113.816a8.016,8.016,0,0,0-.118,1.184H418.9c.177-.355.414-.71.592-1.065C420.084,114.053,420.675,113.106,421.385,113.816Z" transform="translate(-171.024 -46.356)" fill="#2488bc"/>
    <path id="Trazado_100" data-name="Trazado 100" d="M436.049,112.088c-.888.118-1.894.533-2.249-.888h1.184c.3.059.533.178.828.237A2.121,2.121,0,0,1,436.049,112.088Z" transform="translate(-177.106 -45.396)" fill="#2488bc"/>
    <path id="Trazado_101" data-name="Trazado 101" d="M120.918,118c.769.71.473,1.6.473,2.426C120.445,119.775,120.918,118.828,120.918,118Z" transform="translate(-49.327 -48.172)" fill="#1c61a3"/>
    <path id="Trazado_102" data-name="Trazado 102" d="M436.629,111.437c-.3-.059-.533-.178-.828-.237A3.393,3.393,0,0,1,436.629,111.437Z" transform="translate(-177.923 -45.396)" fill="#3a93c3"/>
    <path id="Trazado_103" data-name="Trazado 103" d="M447.447,111.579c-.3-.059-.651-.118-.947-.178C446.914,110.869,447.21,111.165,447.447,111.579Z" transform="translate(-182.291 -45.362)" fill="#3a93c3"/>
    <path id="Trazado_104" data-name="Trazado 104" d="M286.492,278.451c-.178-.237-.414-.414-.592-.651A6.483,6.483,0,0,0,286.492,278.451Z" transform="translate(-116.727 -113.409)" fill="#2488bc"/>
    <path id="Trazado_105" data-name="Trazado 105" d="M287.373,279.551a4.515,4.515,0,0,1-.473-.651A6.206,6.206,0,0,1,287.373,279.551Z" transform="translate(-117.136 -113.858)" fill="#2488bc"/>
    <path id="Trazado_106" data-name="Trazado 106" d="M200.8,196a.954.954,0,0,1,.533.178Z" transform="translate(-81.986 -80.015)" fill="#1c61a3"/>
    <path id="Trazado_107" data-name="Trazado 107" d="M137.759,136.2a6.243,6.243,0,0,1,.651.414h-.71A1.007,1.007,0,0,1,137.759,136.2Z" transform="translate(-56.226 -55.602)" fill="#2193c1"/>
    <path id="Trazado_108" data-name="Trazado 108" d="M311.273,51.51h-.414a1.638,1.638,0,0,0-.059-.533l.177-.178A3.629,3.629,0,0,0,311.273,51.51Z" transform="translate(-126.893 -20.739)" fill="#2179b5"/>
    <path id="Trazado_109" data-name="Trazado 109" d="M253.4,29.782c-1.184,3.728-2.367,7.515-3.551,11.243-1.834.059-3.432-.651-5.148-1.006-2.959-.651-4.2.355-4.32,3.432v1.479c0,3.787-.059,3.491-3.787,3.906-4.438.473-8.936-.71-13.315.947-1.657.651-2.545-.178-2.485-2.071.059-2.19,1.184-4.438,0-6.628,4.2-.769,8.166-2.663,12.6-2.663,2.13,0,3.551-1.775,3.432-4.32-.059-1.3-.592-3.669.473-3.846,2.6-.414,4.5-2.9,7.456-2.071C247.546,28.953,250.386,30.019,253.4,29.782Z" transform="translate(-90.149 -11.437)" fill="#248ebf"/>
    <path id="Trazado_110" data-name="Trazado 110" d="M217.942,41.51c-2.308-2.959-2.959-6.628-4.142-10.06h1.184c1.894-.237,3.61-1.065,5.681-.71,2.485.414,2.426,1.657,1.6,3.2C220.96,36.539,219.422,38.965,217.942,41.51Z" transform="translate(-87.293 -12.514)" fill="#248ebf"/>
    <path id="Trazado_111" data-name="Trazado 111" d="M213.96,24.341h-1.775c.237-2.308-.473-4.5-.828-6.687-.237-1.479.178-1.953,1.42-2.249,2.367-.651,4.734-1.3,7.042-1.953.473-.118,1.006-.414,1.361,0,.473.651-.178,1.065-.533,1.479-1.775,2.19-3.551,4.379-5.385,6.569A6.6,6.6,0,0,0,213.96,24.341Z" transform="translate(-86.27 -5.405)" fill="#31aacd"/>
    <path id="Trazado_112" data-name="Trazado 112" d="M214.9,82.078c.71-.533.414-1.124.3-1.834-.71-3.373-.178-4.2,3.314-4.616,1.42-.178,2.722-.118,2.959-2.012.178-1.243,1.243-1.065,2.071-.71,1.775.651,3.846.828,3.787,3.61-.059,3.551,2.545,4.971,5.681,3.314.828-.473,1.6-1.006,1.184-2.071-.828-2.012.118-2.485,1.894-2.9a42.723,42.723,0,0,0,5.681-2.367c.947-.414,1.834-.828,2.663.178-.178.592-.414,1.184-.592,1.775-.059,1.124.947,1.124,1.479,1.124,2.19-.178,4.142.769,6.213,1.243.592.769,1.184,1.6,1.775,2.367-3.018,3.787-3.018,3.787-7.456,2.367a10.335,10.335,0,0,0-2.249-.533c-.71-.059-1.657.237-1.3,1.065.888,2.13-.3,4.557.947,6.569,0,.178.059.414.059.592-.769.592-.414,1.361-.414,2.13.059,2.485.178,4.971-.769,7.338-1.657-1.479-1.184-4.261-3.373-5.563a12.625,12.625,0,0,0,.414,6.154c-1.657-.178-2.249-1.539-3.136-2.663-.769-1.006-1.006-2.6-2.722-2.663-.947-1.006-.888-2.13-.651-3.491.355-1.894.533-4.379-2.19-4.616-2.485-.237-4.734-1.124-7.16-1.361h0c0-3.965-.059-3.965-3.965-2.959C217.8,81.841,216.557,83.616,214.9,82.078Z" transform="translate(-87.742 -29.411)" fill="#2482b9"/>
    <path id="Trazado_113" data-name="Trazado 113" d="M200.029,85.551l.651-.651c.414,0,.769.059,1.184.059,3.373,3.551,6.687,7.4,12.427,4.734h0a7.61,7.61,0,0,1-1.124,4.793c-3.018-1.184-4.734,0-5.977,4.083-2.308,1.657-4.5,3.61-7.693,2.308V99.812c2.426-.178,5.148.3,5.918-3.018,1.124-2.071.651-3.136-1.894-2.959a5.846,5.846,0,0,0-2.84.592c-2.426-1.361-3.728-4.5-7.16-4.142-1.184-1.184.592-1.6.651-2.426,3.314-.237,5.148,2.722,7.93,3.669,1.065.355,2.012.651,2.6-.237.592-.828-.178-1.6-.947-2.13A13.507,13.507,0,0,1,200.029,85.551Z" transform="translate(-78.848 -34.66)" fill="#1962aa"/>
    <path id="Trazado_114" data-name="Trazado 114" d="M271.587,73.461c-2.071-.473-3.965-1.42-6.213-1.243-.533.059-1.6.059-1.479-1.124,1.3-.178,2.959,1.243,3.965-.533.71-1.184-.059-2.19-1.006-3.018.592-.769,1.184-1.6,1.775-2.367.828-.355,1.361-1.3,2.367-1.184,1.479,1.479,3.669.828,5.326,1.775.947,1.243,1.775,2.663,3.551,2.959-.355,1.065.947,3.787-1.953,2.426C274.782,69.674,273.125,71.094,271.587,73.461Z" transform="translate(-107.74 -26.12)" fill="#2193c1"/>
    <path id="Trazado_115" data-name="Trazado 115" d="M200.9,69.142a7.89,7.89,0,0,1,2.959-2.959c1.775-.414,3.551-.769,5.326-1.184a9.508,9.508,0,0,1,2.367,1.006c1.243,1.065,2.485,1.6,0,3.491-2.545,1.953-5.8,1.3-7.989,3.551-.71.71-1.6-.059-2.071-.947C202.143,70.918,204.273,69.5,200.9,69.142Z" transform="translate(-82.027 -26.536)" fill="#2193c1"/>
    <path id="Trazado_116" data-name="Trazado 116" d="M220.227,89.5c-5.74,2.663-9.054-1.184-12.427-4.734,2.545-1.243,2.9,1.3,4.142,2.367,1.657,1.539,2.9-.178,4.32-.533C220.168,85.539,220.227,85.539,220.227,89.5Z" transform="translate(-84.844 -34.47)" fill="#1e72b1"/>
    <path id="Trazado_117" data-name="Trazado 117" d="M266.759,69.995c.947.828,1.657,1.834,1.006,3.018-1.006,1.775-2.6.355-3.965.533.177-.592.414-1.184.592-1.775C265.22,71.178,265.457,69.876,266.759,69.995Z" transform="translate(-107.705 -28.572)" fill="#31aacd"/>
    <path id="Trazado_118" data-name="Trazado 118" d="M211.226,63.478c-1.775.414-3.551.769-5.326,1.184C207.616,60.46,208.5,60.283,211.226,63.478Z" transform="translate(-84.068 -25.014)" fill="#31aacd"/>
    <path id="Trazado_119" data-name="Trazado 119" d="M199.226,72c3.373.355,1.243,1.775.592,2.9-1.065-.178-2.6.651-3.018-1.184h0c.828.059,1.184-.355,1.184-1.124h0A1.293,1.293,0,0,0,199.226,72Z" transform="translate(-80.353 -29.393)" fill="#31aacd"/>
    <path id="Trazado_120" data-name="Trazado 120" d="M269.368,199.767v.592c-2.545.3-4.5,2.19-7.042,2.426-.769-1.834-2.012-3.373-2.426-5.385a82.516,82.516,0,0,0,18.522-10.711c4.261-3.373,5.5-8.048,3.077-12.96-.828-1.657-1.716-3.314-2.545-5.03-.414-.828-.947-1.539-2.012-1.479-1.243.059-2.781-.592-3.61.651-.828,1.184.533,2.071,1.065,3.077.769,1.479,1.775,2.84,2.012,4.557-4.2.828-6.036,3.551-5.918,7.693-1.3.533-1.834,2.308-3.491,2.367,1.539-3.728-.237-6.154-3.2-8.225-.769-.533-1.834-.828-2.19-1.834,2.071-1.657,4.438-3.018,5.918-5.326,4.5-1.006,5.267-2.426,3.314-6.391a34.7,34.7,0,0,1-1.894-3.965c-.414-1.124-.888-1.6-2.13-1.124-1.42.533-2.6.3-2.781-1.479a25.081,25.081,0,0,1,.592-7.279c.059-.414.237-.769.651-.828.592-.118.888.3,1.006.769.355,1.361.651,2.722,1.124,4.5a24.547,24.547,0,0,0,.118-11.362c5.267,0,5.8-.414,7.693-5.918a14.285,14.285,0,0,1,4.734,1.184c.769,2.13,2.9,2.367,4.5,3.432,2.19,1.479,5.267,1.657,6.746,4.261-5.03-.178-9.941-1.539-14.971-2.13-1.243-.118-2.722-1.065-3.373.947-1.6,1.834.059,3.314.533,4.912a85.135,85.135,0,0,1,2.959,12.19c.237,1.657.473,4.142,3.61,3.314.947-.237,1.243,1.065,1.6,1.834.828,1.953,1.6,3.965,2.426,5.918,3.432,7.752,2.84,11.243-3.669,16.569-2.84,2.367-5.267,5.918-9.942,5.148-1.3-.237-1.894,1.184-1.6,2.545C268.954,198.051,269.191,198.939,269.368,199.767Z" transform="translate(-106.113 -55.97)" fill="#2488bc"/>
    <path id="Trazado_121" data-name="Trazado 121" d="M248.874,302.7c-.178.414-.414.769-.592,1.184a13.351,13.351,0,0,0-7.693,4.142c-3.551.473-6.687,1.716-8.876,4.734-1.006.177-1.953.414-2.959.592-.828-4.971-.828-4.912-5.681-5.326-7.752-.651-14.321-3.728-19.173-10.06,1.953-.473,2.781,2.249,4.734,1.775h0c.059,1.243.947,1.184,1.834,1.184.947-.059,1.6.651,2.367.947,2.071.828,3.728,2.249,6.036,2.722a52.075,52.075,0,0,0,18.167.592c1.775.888,3.2.71,4.142-1.243a.358.358,0,0,1,.355-.178c2.249.414,3.965-.651,5.563-1.953C248.578,300.506,248.874,301.216,248.874,302.7Z" transform="translate(-83.252 -121.618)" fill="#248ebf"/>
    <path id="Trazado_122" data-name="Trazado 122" d="M245.92,239c.414,1.953,1.657,3.551,2.426,5.385a42.242,42.242,0,0,1-7.93,2.84c-4.083,1.243-7.93,3.2-12.249,3.669-.769-1.42-1.6-2.781-2.367-4.2C232.546,244.089,239.233,241.545,245.92,239Z" transform="translate(-92.192 -97.57)" fill="#3a93c3"/>
    <path id="Trazado_123" data-name="Trazado 123" d="M216.835,252c.769,1.42,1.6,2.781,2.367,4.2-1.361,1.6-3.314,2.308-5.03,3.373-6.509,3.846-8.936,9.527-6.864,16.1-.178,1.065.533,1.894.888,2.781l-.237.177a9.248,9.248,0,0,1-4.2-7.219c-.3-5.03.355-9.7,4.142-13.551C210.5,255.255,213.7,253.716,216.835,252Z" transform="translate(-83.168 -102.877)" fill="#227cb7"/>
    <path id="Trazado_124" data-name="Trazado 124" d="M256.776,201.935c.355,1.065,1.42,1.3,2.19,1.834,2.959,2.071,4.675,4.5,3.2,8.225a2.22,2.22,0,0,0-.592.059,21.319,21.319,0,0,0-10.533-7.634c-1.243-.355-2.485-.592-3.136-1.894C250.74,201.225,253.818,202.231,256.776,201.935Z" transform="translate(-101.214 -82.399)" fill="#1b68ac"/>
    <path id="Trazado_125" data-name="Trazado 125" d="M277.8,209.693c-.059-4.142,1.716-6.864,5.918-7.693.355,2.249-.651,4.261-1.361,6.213C281.645,210.344,279.456,209.515,277.8,209.693Z" transform="translate(-113.42 -82.465)" fill="#31aacd"/>
    <path id="Trazado_126" data-name="Trazado 126" d="M211.474,299.245a3.649,3.649,0,0,1-.592-2.367l.237-.177a3.227,3.227,0,0,1,1.184,2.485,3.634,3.634,0,0,0-.828.059Z" transform="translate(-86.091 -121.125)" fill="#227cb7"/>
    <path id="Trazado_127" data-name="Trazado 127" d="M281.9,149.122c.651-2.012,2.13-1.065,3.373-.947,5.03.533,9.882,1.953,14.971,2.13a4.634,4.634,0,0,0,2.959.592c-.355,3.965.828,7.87.592,11.835,0,.178-.059.355-.059.533-4.024-.178-7.811,1.42-11.835,1.3C288.587,159.419,285.214,154.271,281.9,149.122Z" transform="translate(-115.095 -60.359)" fill="#3a93c3"/>
    <path id="Trazado_128" data-name="Trazado 128" d="M334.143,161c6.628,2.6,13.019,5.563,17.753,11.243-1.006,1.6-1.953,3.136-2.959,4.734a46.453,46.453,0,0,0-8.876-5.326c-3.551-2.071-7.16-3.491-11.421-3.018-1.834.178-3.906.651-5.74-.533,1.894-2.781,5.207-3.2,7.87-4.675C331.954,162.716,333.67,162.775,334.143,161Z" transform="translate(-131.832 -65.727)" fill="#1e72b1"/>
    <path id="Trazado_129" data-name="Trazado 129" d="M366.8,184.734c1.006-1.6,1.953-3.136,2.959-4.734a27.981,27.981,0,0,1,4.734,17.812c-.414,6.687.947,12.782,5.918,17.634-1.42.414-2.13,3.2-3.787,2.012a7.819,7.819,0,0,1-3.314-5.03,109.737,109.737,0,0,1-1.3-11.658c-.473-5.03-1.361-10.06-4.142-14.5-.237-.414-.71-.651-1.065-1.006Z" transform="translate(-149.754 -73.483)" fill="#227cb7"/>
    <path id="Trazado_130" data-name="Trazado 130" d="M332.043,157.734c-.473,1.775-2.19,1.716-3.373,2.426-2.663,1.479-5.977,1.894-7.87,4.675h-2.367c.237-3.965-1.006-7.87-.592-11.835C322.339,155.13,327.546,155.426,332.043,157.734Z" transform="translate(-129.732 -62.461)" fill="#2482b9"/>
    <path id="Trazado_131" data-name="Trazado 131" d="M362.512,146a5.53,5.53,0,0,0,.947,1.065c1.953,1.184,1.42,1.775-.355,2.6-3.846,1.775-7.989,2.426-11.835,4.024-3.136-1.361-6.332-2.781-9.468-4.142.828-.947,1.953-.414,2.959-.592,1.3-.3,2.663-.414,4.024-.651,4.024-.651,8.048-1.065,11.953-2.308Z" transform="translate(-139.548 -59.603)" fill="#1d6eb0"/>
    <path id="Trazado_132" data-name="Trazado 132" d="M290.226,130.835a14.285,14.285,0,0,0-4.734-1.184c-.178-1.361-.414-2.781-.592-4.142,1.479-.178,1.6-1.479,2.071-2.485.651-1.361.888-2.9,2.071-4.024,1.42.769,2.071,2.189,2.959,3.432,1.006,1.3,1.006,3.728,3.491,3.728-.177.592-.355,1.184-.533,1.716-.533,1.124-1.361,2.19-1.243,3.551C292.474,131.664,291.409,131.013,290.226,130.835Z" transform="translate(-116.319 -48.581)" fill="#1b68ac"/>
    <path id="Trazado_133" data-name="Trazado 133" d="M338.3,146.473c-1.006.178-2.13-.355-2.959.592-2.959-1.006-5.918-1.953-8.876-2.959a11,11,0,0,1-.592-4.142,79.475,79.475,0,0,1,12.427.592C338.238,142.509,338.238,144.521,338.3,146.473Z" transform="translate(-133.028 -57.118)" fill="#3a93c3"/>
    <path id="Trazado_134" data-name="Trazado 134" d="M315.278,137.551a11,11,0,0,0,.592,4.142c-5.267-1.479-10.77-2.249-15.977-4.142-.118-1.361.71-2.426,1.243-3.551a13.2,13.2,0,0,1,3.669.592c3.373,1.124,6.924,1.953,10.474,2.959Z" transform="translate(-122.435 -54.704)" fill="#227cb7"/>
    <path id="Trazado_135" data-name="Trazado 135" d="M170.343,183.06a293.9,293.9,0,0,0-29.765-.533,39.248,39.248,0,0,0-13.255,2.249c-2.426.888-3.669,2.84-5.5,4.2-.592-5.326.947-7.279,7.042-10,6.628-2.959,13.67-3.965,20.652-5.385a5.181,5.181,0,0,0,1.3-.592h21.3a2.106,2.106,0,0,1,.473,2.426C171.882,177.971,171.053,180.515,170.343,183.06Z" transform="translate(-49.695 -70.626)" fill="#1962aa"/>
    <path id="Trazado_136" data-name="Trazado 136" d="M29.9,246.12c.947-.769,1.184-2.012,1.775-3.018,4.852.592,9.646,1.539,14.616,1.243a53.358,53.358,0,0,0,19.824-4.852c2.426-1.124,4.32-3.018,6.391-4.675.651.533,1.361,1.124,1.953,1.657,1.184,1.065,1.953.651,2.84-.533a17.88,17.88,0,0,0,2.9-8.344c.118-.828.178-1.6,1.243-1.6a22.993,22.993,0,0,1-1.243,8.7c-.71,2.13-1.953,3.846-4.379,4.32-1.657.355-2.367,2.012-3.669,2.84-6.509,4.142-13.61,6.213-21.244,7.279-6.1.888-11.894-.237-17.694-1.361C31.971,247.54,30.551,247.481,29.9,246.12Z" transform="translate(-12.218 -92.263)" fill="#1d6eb0"/>
    <path id="Trazado_137" data-name="Trazado 137" d="M165.837,165.243h-3.551c-4.142-1.775-8.344-3.61-12.486-5.385,5.207-2.426,10.652-3.965,16.037-5.858.888,2.9,3.728,1.834,5.622,2.722,1.6.71,4.5-.118,4.675,1.775.178,1.716-2.9,1.834-4.32,2.9C169.861,162.758,167.02,162.758,165.837,165.243Z" transform="translate(-61.166 -62.869)" fill="#2179b5"/>
    <path id="Trazado_138" data-name="Trazado 138" d="M156.936,149.55c-5.385,1.894-10.829,3.491-16.037,5.858-4.675.947-8.817,3.077-12.9,5.444-.059-3.136,1.834-4.793,4.557-5.858,6.154-2.545,12.249-5.148,18.345-7.634.651-.3,1.3-.414,1.361-1.3.947-.414,1.953-.769,2.9-1.184h1.184c.947,1.006,1.834,0,2.663-.237,1.894-.414,3.61-1.479,5.622-1.539-.71,1.539-2.367,1.894-3.491,2.959-1.243,1.124-3.2,1.539-3.669,3.491A.821.821,0,0,0,156.936,149.55Z" transform="translate(-52.265 -58.419)" fill="#31aacd"/>
    <path id="Trazado_139" data-name="Trazado 139" d="M375.125,133.753H373.35c0-1.6-.888-3.077-.592-4.734a28.335,28.335,0,0,0,15.5-7.042c3.432-2.959,7.515-4.5,11.658-5.977h2.367a3.649,3.649,0,0,1,.592,2.367,48.781,48.781,0,0,1-4.793,2.071c-5.267,1.775-8.876,6.036-13.433,8.936C381.694,131.327,378.2,132.037,375.125,133.753Z" transform="translate(-152.162 -47.356)" fill="#227cb7"/>
    <path id="Trazado_140" data-name="Trazado 140" d="M286.718,58.936c-1.716-.355-2.6-1.716-3.551-2.959.178-1.834-1.065-2.722-2.367-3.551.473-7.1,5.858-11.835,14.2-12.427-.414,3.077-3.551,5.03-3.551,8.285-2.249,2.781-3.018,6.213-4.142,9.468a7.541,7.541,0,0,1-.059,1.184Z" transform="translate(-114.645 -16.33)" fill="#227cb7"/>
    <path id="Trazado_141" data-name="Trazado 141" d="M278.859,61c1.3.828,2.545,1.716,2.367,3.551-1.657-.947-3.846-.3-5.326-1.775A3.538,3.538,0,0,1,278.859,61Z" transform="translate(-112.645 -24.903)" fill="#2488bc"/>
    <path id="Trazado_142" data-name="Trazado 142" d="M172.9,121.67v-3.018c1.894-3.491,2.485-7.634,5.326-10.652,2.485,1.361,3.61,4.5,6.509,5.326-1.184,1.953-2.367,3.906-3.551,5.918C178.226,119.362,175.859,121.492,172.9,121.67Z" transform="translate(-70.596 -44.09)" fill="#1d6eb0"/>
    <path id="Trazado_143" data-name="Trazado 143" d="M34.9,114.52a42.151,42.151,0,0,1,16.333.237c.888.178,1.716.3,2.6.414-.178,1.184-.355,2.367-.592,3.491H52.061c-5.622-2.189-11.362-2.13-17.161-1.184Z" transform="translate(-14.259 -46.468)" fill="#2179b5"/>
    <path id="Trazado_144" data-name="Trazado 144" d="M13.151,119.059c.592,0,1.124-.059,1.716-.059a2.263,2.263,0,0,0,1.184,2.426c-2.012,2.367-5.563,2.959-7.1,5.858-2.19-2.308-1.834-3.61,1.539-5.8C11.554,120.834,12.974,120.657,13.151,119.059Z" transform="translate(-3.103 -48.581)" fill="#227cb7"/>
    <path id="Trazado_145" data-name="Trazado 145" d="M211.848,267.729c-.828,1.539-1.716,3.136-2.545,4.675-2.071-6.569.355-12.249,6.864-16.1,1.716-1.006,3.728-1.716,5.03-3.373,4.32-.473,8.166-2.426,12.249-3.669a42.24,42.24,0,0,0,7.93-2.84c2.545-.237,4.5-2.13,7.042-2.426.947,1.065.592,3.018,2.367,3.551-4.083,2.426-8.758,3.2-13.137,4.734-7.1,2.545-14.912,3.432-21.126,8.225-1.716,1.3-3.61,2.367-4.912,4.083C210.782,265.658,209.954,266.842,211.848,267.729Z" transform="translate(-85.163 -99.611)" fill="#1962aa"/>
    <path id="Trazado_146" data-name="Trazado 146" d="M297.059,175.192c4.024.118,7.811-1.479,11.835-1.3.3,3.018,1.775,5.858,1.775,8.936-2.545.592-5.089,1.243-7.634,1.894a5.12,5.12,0,0,0-2.959,1.657c-1.657-2.781-2.781-5.918-4.971-8.462C293.154,175.607,296.823,176.494,297.059,175.192Z" transform="translate(-120.253 -70.984)" fill="#1b68ac"/>
    <path id="Trazado_147" data-name="Trazado 147" d="M265.9,311.734a13.351,13.351,0,0,1,7.693-4.142c1.6-.178,3.2-.414,4.793-.592-2.781,3.965-6.805,6.154-11.3,7.693C266.669,313.687,266.255,312.681,265.9,311.734Z" transform="translate(-108.563 -125.33)" fill="#2482b9"/>
    <path id="Trazado_148" data-name="Trazado 148" d="M259.776,315c.414,1.006.769,2.012,1.184,2.959a64.99,64.99,0,0,1-10.06,1.716C253.09,316.716,256.226,315.414,259.776,315Z" transform="translate(-102.439 -128.596)" fill="#3a93c3"/>
    <path id="Trazado_149" data-name="Trazado 149" d="M414.837,260.271c-.828,1.006-2.012.3-2.959.71-.888.414-2.249.177-2.367,1.657h-3.551c-2.722-1.657-5.918-1.894-8.876-2.959-3.077-1.065-6.036-2.308-8.285-4.734,1.065-1.716,2.426-1.953,4.142-.888a45.051,45.051,0,0,0,4.142,2.071c4.852,2.19,10.06,2.959,15.267,3.551C413.24,259.738,414.186,259.383,414.837,260.271Z" transform="translate(-158.736 -103.455)" fill="#1b68ac"/>
    <path id="Trazado_150" data-name="Trazado 150" d="M200.391,84.775a13.97,13.97,0,0,0,3.787,3.669c.769.473,1.539,1.243.947,2.13-.592.828-1.539.592-2.6.237-2.781-.947-4.616-3.965-7.93-3.669-.178-.178-.414-.355-.592-.533,0-2.308,1.184-3.491,3.432-3.61A5.642,5.642,0,0,0,200.391,84.775Z" transform="translate(-79.21 -33.884)" fill="#2179b5"/>
    <path id="Trazado_151" data-name="Trazado 151" d="M186.891,119.96c1.184-1.953,2.367-3.906,3.551-5.918.592-1.361,1.184-2.722,1.775-4.142,1.361,1.124,1.124,2.663,1.184,4.142v1.184c-2.308,1.953-2.9,5.267-5.385,7.1C186.417,122.149,187.009,120.907,186.891,119.96Z" transform="translate(-76.302 -44.866)" fill="#227cb7"/>
    <path id="Trazado_152" data-name="Trazado 152" d="M207.327,104.143c-.828,3.314-3.491,2.9-5.918,3.018-.414-.059-.769-.059-1.184-.118v-.059a4.253,4.253,0,0,0-2.426-2.9c.473-1.006,1.834-.237,2.367-1.184a1.638,1.638,0,0,1,.533.059c.237.178.473.3.71.473h1.124a.919.919,0,0,0,1.184.533C204.96,104.084,206.144,104.084,207.327,104.143Z" transform="translate(-80.761 -42.008)" fill="#1b4587"/>
    <path id="Trazado_153" data-name="Trazado 153" d="M200.9,99.792h-1.124c-.237-.178-.473-.3-.71-.473-.178,0-.355-.059-.533-.059-1.6-1.775-4.083-2.781-4.734-5.385,3.432-.414,4.734,2.781,7.16,4.142,0,.414.059.769.059,1.184A2.6,2.6,0,0,0,200.9,99.792Z" transform="translate(-79.128 -38.309)" fill="#248ebf"/>
    <path id="Trazado_154" data-name="Trazado 154" d="M197.124,105a4.277,4.277,0,0,1,2.426,2.9,1.061,1.061,0,0,0-.414,1.539c1.657,2.6.178,2.9-1.953,2.722-.059-1.479.178-3.018-1.184-4.142C196.355,107.012,196.71,106.006,197.124,105Z" transform="translate(-80.027 -42.865)" fill="#1d6eb0"/>
    <path id="Trazado_155" data-name="Trazado 155" d="M196.942,82.164c-2.249.178-3.491,1.3-3.432,3.61-1.124-1.006-.414-2.426-.71-3.61C194.161,80.093,195.522,81.572,196.942,82.164Z" transform="translate(-78.72 -33.107)" fill="#1b4587"/>
    <path id="Trazado_156" data-name="Trazado 156" d="M283.315,109.6c-1.184,1.124-1.42,2.663-2.071,4.024-.473.947-.592,2.308-2.071,2.485,0-3.61-2.19-6.332-3.551-9.409.651-.118,1.479.237,2.308-.828-2.781-.118-3.965-2.722-6.45-2.84-.178-1.539-.414-3.136-.592-4.675-.059-1.243-.059-2.545,1.775-2.367-.3.947-1.361,2.012.592,2.367h0c.355,1.006.769,1.953,1.124,2.959,0,1.657,1.6,2.012,2.426,3.018,2.249.769,4.438,1.3,5.326-1.894h.651a1.724,1.724,0,0,1,1.716,1.184A10.106,10.106,0,0,0,283.315,109.6Zm-3.373-3.965c-.059,0-.178-.118-.237-.059-.3.059-.3.237-.059.355a.237.237,0,0,0,.3-.3Z" transform="translate(-110.592 -39.18)" fill="#1962aa"/>
    <path id="Trazado_157" data-name="Trazado 157" d="M281.063,85.959c1.361-1.006,2.781-1.953,4.142-2.959,2.959.118,3.018,1.894,2.308,4.083-.769.118-2.012,0-2.19.414-1.184,2.367-3.846,2.012-5.622,3.255-.769.533-1.657.828-2.367-.118-.651-.888.178-1.42.71-1.953C279.051,87.734,280.057,86.846,281.063,85.959Z" transform="translate(-113.133 -33.884)" fill="#2179b5"/>
    <path id="Trazado_158" data-name="Trazado 158" d="M280.033,86.816c-1.006.947-2.012,1.834-3.018,2.781-.533.533-1.361,1.065-.71,1.953s1.6.592,2.367.118c1.775-1.184,4.438-.828,5.622-3.255.178-.414,1.42-.3,2.19-.414.473.769,1.894,1.184.769,2.426-.947-1.006-1.657-.414-2.485.237-1.539,1.361-3.136,2.6-4.734,3.906-1.657-1.243-3.551-.355-5.385-.651h0c-.414-1.006,1.065-2.012,0-2.959.059-2.663,3.136-3.491,3.551-5.858h1.184A8.553,8.553,0,0,1,280.033,86.816Z" transform="translate(-112.103 -34.741)" fill="#1962aa"/>
    <path id="Trazado_159" data-name="Trazado 159" d="M303.718,107a80.2,80.2,0,0,1-1.184,11.835c-.592-.178-1.184-.355-1.775-.592a11.085,11.085,0,0,1-2.959-5.326C300.4,111.557,301.173,108.361,303.718,107Z" transform="translate(-121.586 -43.682)" fill="#1b68ac"/>
    <path id="Trazado_160" data-name="Trazado 160" d="M295.342,113.693a12.154,12.154,0,0,0,2.959,5.326c0,1.006-.059,1.953-.059,2.959-2.485,0-2.485-2.367-3.491-3.728-.947-1.184-1.539-2.663-2.959-3.432a10.284,10.284,0,0,1,1.184-5.918A11.412,11.412,0,0,0,295.342,113.693Z" transform="translate(-119.128 -44.457)" fill="#1e72b1"/>
    <path id="Trazado_161" data-name="Trazado 161" d="M279.226,107.161c-.828-1.006-2.426-1.361-2.426-3.018,1.539-.769,3.491.71,4.852-.947.769-.118,1.539-.178,2.249-.3.3.71,1.243.888,1.184,1.775-.178.237-.414.414-.592.651h0C282.718,105.918,281.238,107.22,279.226,107.161Z" transform="translate(-113.012 -42.008)" fill="#1b4587"/>
    <path id="Trazado_162" data-name="Trazado 162" d="M286.793,98.806c-.769.118-1.539.178-2.249.3a1.411,1.411,0,0,1-.651-1.361c1.6-1.3,3.2-2.6,4.734-3.906.828-.71,1.539-1.3,2.485-.237C290.936,96.38,288.214,97.09,286.793,98.806Z" transform="translate(-115.905 -37.974)" fill="#248ebf"/>
    <path id="Trazado_163" data-name="Trazado 163" d="M289.8,106.551c.177-.237.414-.414.592-.651,0,.237.059.473.059.651Z" transform="translate(-118.32 -43.233)" fill="#2482b9"/>
    <path id="Trazado_164" data-name="Trazado 164" d="M65.9,119.591c.178-1.184.355-2.367.592-3.491h.592a47.117,47.117,0,0,1,15.386,8.225c4.557,3.728,10.178,4.971,15.741,5.858,8.048,1.3,16.214.533,24.38.651a4.04,4.04,0,0,0,1.3-.533c4.32-.237,8.166-2.367,12.427-2.959-.118,1.361-1.479,1.716-2.249,2.426-1.479,1.3-3.373,2.189-4.261,4.083-.947.414-1.953.769-2.9,1.184-2.959.947-5.977,1.953-8.936,2.9-5.74-.769-11.421-1.539-17.161-2.367-.651-.178-1.3-.414-1.953-.533-7.16-1.539-14.025-3.906-19.824-8.64-1.834-1.479-3.373-3.551-5.977-3.906C70.812,121.13,68.267,120.6,65.9,119.591Z" transform="translate(-26.914 -47.397)" fill="#2482b9"/>
    <path id="Trazado_165" data-name="Trazado 165" d="M122.042,149c5.74.769,11.421,1.539,17.161,2.367-4.142,1.065-7.93,3.018-11.835,4.734-2.367-1.775-5.326-1.834-7.93-2.9-.533-.178-1.184-.059-1.539-.592,0-1.243,1.184-1.124,1.834-1.539C120.622,150.479,121.924,150.42,122.042,149Z" transform="translate(-48.143 -60.828)" fill="#1e72b1"/>
    <path id="Trazado_166" data-name="Trazado 166" d="M194.9,276a1.109,1.109,0,0,1,.533,1.184A1.207,1.207,0,0,1,194.9,276Z" transform="translate(-79.578 -112.675)" fill="#2193c1"/>
    <path id="Trazado_167" data-name="Trazado 167" d="M105.713,139.978c-.118,1.42-1.42,1.479-2.308,2.012-.71.414-1.834.3-1.834,1.539a38.919,38.919,0,0,1-17.4-9.291c-2.426-2.19-5.74-3.551-6.273-7.338,2.6.3,4.142,2.367,5.977,3.906,5.8,4.734,12.664,7.1,19.824,8.64A19.959,19.959,0,0,1,105.713,139.978Z" transform="translate(-31.813 -51.806)" fill="#1b68ac"/>
    <path id="Trazado_168" data-name="Trazado 168" d="M43.446,221.51v.592a20.25,20.25,0,0,0-6.332,2.249c-1.716.947-3.491,1.479-2.84,4.261.355,1.716-1.953,2.959-2.545,4.793a10.411,10.411,0,0,0-.71,3.965,1.818,1.818,0,0,1-1.184-1.184c-.3-2.781.059-5.563,1.834-7.693,1.361-1.657,1.539-3.018.473-4.734a14.289,14.289,0,0,1,7.1-2.959C40.665,221.155,42.2,220.386,43.446,221.51Z" transform="translate(-12.153 -90.14)" fill="#1d6eb0"/>
    <path id="Trazado_169" data-name="Trazado 169" d="M202.56,172.013c.769-2.545,1.539-5.03,2.249-7.634.237-.828.414-1.775-.473-2.426-.237-.533-.473-1.065-.651-1.6-.651-1.775-3.669-3.018-2.959-4.32,1.065-1.894,3.491.414,5.385,0a26.031,26.031,0,0,0,7.693,1.775,24.074,24.074,0,0,1,2.9.3c1.953.473,2.6-.059,1.953-2.071-.651-1.953-1.184-3.906-1.775-5.858-.947-3.373-.769-3.551,2.84-3.61a26.019,26.019,0,0,1,7.1-.592h3.551c.651.473.533,1.124.533,1.775a1.66,1.66,0,0,0-1.361.947c-1.716,3.551-3.255,7.16-5.207,10.592-2.071,3.669-3.373,7.811-7.515,10.237-2.071,1.243-4.793,2.545-5.444,5.444A25.655,25.655,0,0,0,202.5,172.6,2.219,2.219,0,0,0,202.56,172.013Z" transform="translate(-81.912 -59.579)" fill="#1d6eb0"/>
    <path id="Trazado_170" data-name="Trazado 170" d="M30.5,225.9a3.631,3.631,0,0,1-.473,4.734c-1.775,2.13-2.13,4.912-1.834,7.693C24.049,235.013,25.291,228.385,30.5,225.9Z" transform="translate(-10.509 -92.222)" fill="#227cb7"/>
    <path id="Trazado_171" data-name="Trazado 171" d="M50.042,220.326c-1.243-1.124-2.781-.355-4.142-.651,1.894-1.539,4.2-1.775,6.509-1.775v2.367C51.581,220.326,50.812,220.326,50.042,220.326Z" transform="translate(-18.75 -88.956)" fill="#3a93c3"/>
    <path id="Trazado_172" data-name="Trazado 172" d="M172.2,131.693c-4.261.592-8.107,2.722-12.427,2.959.118-1.479-.651-1.775-2.012-1.834-1.3-.059-2.781.533-3.965-.533.651-.828,1.6-.651,2.426-.592a15.343,15.343,0,0,0,8.817-2.367c2.959-.178,5.326-2.308,8.285-2.426.118.947-.414,2.189,1.124,2.426-.178.592-.355,1.184-.592,1.775C173.387,131.279,172.8,131.457,172.2,131.693Z" transform="translate(-62.799 -51.806)" fill="#2193c1"/>
    <path id="Trazado_173" data-name="Trazado 173" d="M139.9,136.551c1.894-1.006,3.965-.414,5.918-.651.237.059.414.059.651.118C144.4,138.09,142.149,137.143,139.9,136.551Z" transform="translate(-57.124 -55.48)" fill="#2193c1"/>
    <path id="Trazado_174" data-name="Trazado 174" d="M302.433,128.959c0-1.006.059-1.953.059-2.959.592.178,1.184.355,1.775.592,1.124.533,2.19,1.361,3.551,1.184,1.775.828,3.551,1.6,5.326,2.426.237,1.894,3.61,1.6,2.959,4.083-3.491-.947-7.042-1.834-10.533-2.959a11.332,11.332,0,0,0-3.669-.592Z" transform="translate(-123.259 -51.438)" fill="#248ebf"/>
    <path id="Trazado_175" data-name="Trazado 175" d="M198.083,73a1,1,0,0,1-1.184,1.124C196.9,73.355,197.314,73,198.083,73Z" transform="translate(-80.394 -29.802)" fill="#2488bc"/>
    <path id="Trazado_176" data-name="Trazado 176" d="M359.791,184.326v.592c-.414,1.006-.769,1.953-1.184,2.959-2.367-1.006-4.734-1.953-7.1-2.959h-1.775c-.533-2.13,1.243-3.846,1.184-5.918A44.7,44.7,0,0,1,359.791,184.326Z" transform="translate(-142.745 -73.075)" fill="#1b68ac"/>
    <path id="Trazado_177" data-name="Trazado 177" d="M291.9,62.268c1.124-3.255,1.894-6.687,4.142-9.468,2.426-.355,4.5-1.953,7.042-1.716a1.638,1.638,0,0,1,.059.533c-1.657,1.42-2.426,3.432-3.491,5.267A10.77,10.77,0,0,1,291.9,62.268Z" transform="translate(-119.177 -20.845)" fill="#1d6eb0"/>
    <path id="Trazado_178" data-name="Trazado 178" d="M280.351,79.834h-1.184l-.592-.592c-.592-.769-1.184-1.6-1.775-2.367,1.539-2.308,3.2-3.787,6.332-2.249,2.84,1.361,1.539-1.361,1.953-2.426h.592c.71,1.361,2.485,1.953,2.545,4.024C284.789,75.691,283.013,78.591,280.351,79.834Z" transform="translate(-113.012 -29.475)" fill="#2488bc"/>
    <path id="Trazado_179" data-name="Trazado 179" d="M218.9,176.121c.71-2.9,3.373-4.2,5.444-5.444,4.142-2.426,5.385-6.569,7.515-10.237,1.953-3.432,3.491-7.042,5.208-10.592a1.459,1.459,0,0,1,1.361-.947c.237,4.32.414,8.64.651,13.019-.355,2.13.828,3.314,2.485,4.261a27.2,27.2,0,0,1,9.35,8.817c-1.479,2.308-3.846,3.669-5.918,5.326-2.959.355-5.977-.71-8.876.592-3.669.355-6.864-1.42-10.178-2.545C223.575,177.541,221.267,176.772,218.9,176.121Z" transform="translate(-89.375 -60.787)" fill="#1e72b1"/>
    <path id="Trazado_180" data-name="Trazado 180" d="M456.8,227.959c.177-1.006.414-1.953.592-2.959a10.643,10.643,0,0,1,4.083,5.148c1.183,3.136.71,5.563-2.308,7.279A13.773,13.773,0,0,0,456.8,227.959Z" transform="translate(-186.496 -91.854)" fill="#2482b9"/>
    <path id="Trazado_181" data-name="Trazado 181" d="M455.167,229.551a13.773,13.773,0,0,1,2.367,9.468,2.012,2.012,0,0,1-1.184,1.124c.651-3.669-1.243-6.332-3.551-8.876.414-.769.769-1.6,1.184-2.367C454.4,229.137,454.812,229.314,455.167,229.551Z" transform="translate(-184.863 -93.446)" fill="#1d6eb0"/>
    <path id="Trazado_182" data-name="Trazado 182" d="M362.186,138c-.3,1.657.592,3.136.592,4.734-3.906,1.243-7.93,1.657-11.953,2.308-1.3.237-2.663.355-4.024.651v-5.918c1.065-1.065,2.426-.533,3.61-.533C354.434,139.184,358.339,139.184,362.186,138Z" transform="translate(-141.589 -56.337)" fill="#2482b9"/>
    <path id="Trazado_183" data-name="Trazado 183" d="M367.778,91c.355.888,1.894.592,1.775,1.894-1.124,1.006-2.367.651-3.551.3-2.663-.828-5.5-.947-8.225-1.42l-.178-.118a1.958,1.958,0,0,1,2.485-1.775C362.689,90.232,365.234,90.647,367.778,91Z" transform="translate(-145.998 -36.678)" fill="#227cb7"/>
    <path id="Trazado_184" data-name="Trazado 184" d="M383.8,93.782c.059-.769-.059-1.6,1.006-1.716.888-.118,1.775-.118,1.953,1.124C385.812,93.368,384.806,93.545,383.8,93.782Z" transform="translate(-156.694 -37.565)" fill="#227cb7"/>
    <path id="Trazado_185" data-name="Trazado 185" d="M436.816,225.243c-.414.769-.769,1.6-1.184,2.367-1.775-1.006-3.551-1.953-5.326-2.959a71.008,71.008,0,0,0-12.664-2.249,13.02,13.02,0,0,0-4.616.651c-2.249.651-2.367-.414-2.249-2.012.71-1.124,2.308-.059,2.959-1.243h2.9C423.857,219.739,430.78,220.923,436.816,225.243Z" transform="translate(-167.696 -89.73)" fill="#1b68ac"/>
    <path id="Trazado_186" data-name="Trazado 186" d="M338.328,176.551c.059,2.071-1.716,3.728-1.184,5.918a48.682,48.682,0,0,0-16.569,0c0-3.077-1.539-5.858-1.775-8.936a1.638,1.638,0,0,1,.059-.533h2.367c1.775,1.184,3.846.71,5.74.533C331.168,173.059,334.837,174.479,338.328,176.551Z" transform="translate(-130.159 -70.626)" fill="#1962aa"/>
    <path id="Trazado_187" data-name="Trazado 187" d="M256.626,279.752c-3.373-.473-6.628-1.657-10.119-1.124-1.184.178-1.834-.414-1.716-1.657.118-1.657.118-3.314.178-4.971,4.024,1.065,8.344.059,12.249,1.834C256.507,275.728,256.685,277.74,256.626,279.752Z" transform="translate(-99.939 -111.042)" fill="#1a5da6"/>
    <path id="Trazado_188" data-name="Trazado 188" d="M264.8,280.977c.059-2.012-.118-4.024.592-5.977,4.793,2.485,7.989,6.036,7.752,11.835a2.244,2.244,0,0,1-.828,1.6C270.836,284.942,267.345,283.462,264.8,280.977Z" transform="translate(-108.114 -112.266)" fill="#1c61a3"/>
    <path id="Trazado_189" data-name="Trazado 189" d="M278.9,278.507c.3-.237.71-.769.828-.71a5.014,5.014,0,0,1,2.485,3.61c.118,1.6,1.42,3.669-.947,4.793A19.447,19.447,0,0,0,278.9,278.507Z" transform="translate(-113.87 -113.406)" fill="#31aacd"/>
    <path id="Trazado_190" data-name="Trazado 190" d="M125.711,92.259c-1.775,1.539-2.012,4.261-4.2,5.5-.059-1.42,1.184-2.426,1.3-3.787-1.6-1.361-3.432,1.243-4.912-.355,1.775-1.124,3.551-2.308,5.326-3.432C124.824,90.01,125.179,91.194,125.711,92.259Z" transform="translate(-48.143 -36.811)" fill="#1d6eb0"/>
    <path id="Trazado_191" data-name="Trazado 191" d="M121.96,90.2c-1.775,1.124-3.551,2.308-5.326,3.432h-1.775c0-.414-.059-.769-.059-1.184,0-.355.059-.71.059-1.065C117.108,90.555,119.593,90.555,121.96,90.2Z" transform="translate(-46.877 -36.823)" fill="#3a93c3"/>
    <path id="Trazado_192" data-name="Trazado 192" d="M111.883,93.978c0,.414.059.769.059,1.184-1.361-.414-2.722.769-4.142,0C108.924,93.8,110.4,93.919,111.883,93.978Z" transform="translate(-44.02 -38.353)" fill="#1d6eb0"/>
    <path id="Trazado_193" data-name="Trazado 193" d="M120.695,69.976a19.421,19.421,0,0,1,9.35,3.018c1.124,3.491.533,5.089-2.249,6.45-.651-1.657-2.545-1.775-3.61-2.959.888-.178,2.367.533,2.545-.592.3-1.3-1.3-1.361-2.249-1.775a2.013,2.013,0,0,0-.592-.059c-4.024-1.124-8.107-.3-12.19-.533V70.568A42.318,42.318,0,0,1,120.695,69.976Z" transform="translate(-45.612 -28.553)" fill="#1e72b1"/>
    <path id="Trazado_194" data-name="Trazado 194" d="M122.328,84.793c-7.16-3.2-14.2-2.19-21.185.651-.237-.059-.473-.059-.71-.118H99.9c.355-1.775,1.6-2.485,3.136-3.077a29.137,29.137,0,0,1,16.333-1.6c1.006,1.184,2.9,1.3,3.61,2.959h-.059c-.178.178-.355.414-.533.592A1.825,1.825,0,0,1,122.328,84.793Z" transform="translate(-40.795 -32.718)" fill="#1a5da6"/>
    <path id="Trazado_195" data-name="Trazado 195" d="M137.9,86.592c.178-.178.355-.414.533-.592A5.337,5.337,0,0,1,137.9,86.592Z" transform="translate(-56.308 -35.109)" fill="#1e72b1"/>
    <path id="Trazado_196" data-name="Trazado 196" d="M373.059,84.21a3.432,3.432,0,0,1-2.13.592c-6.864-3.314-13.788-4.142-20.948-1.006-.414-.237-.828-.473-1.184-.71-.118-2.722,2.19-3.136,3.965-3.551a26.127,26.127,0,0,1,18.049,1.834A3.435,3.435,0,0,1,373.059,84.21Z" transform="translate(-142.403 -32.135)" fill="#1a5da6"/>
    <path id="Trazado_197" data-name="Trazado 197" d="M345.014,76.9c-2.13-2.13-.947-3.787.888-5.089a8.726,8.726,0,0,1,3.728-1.6c5.385-.71,10.829-1.42,16.1.769-.414.769-.769,1.6-1.184,2.367-.769-.059-1.539-.178-2.308-.237C356.08,72.523,349.985,71.99,345.014,76.9Z" transform="translate(-140.395 -28.378)" fill="#1e72b1"/>
    <path id="Trazado_198" data-name="Trazado 198" d="M345.759,79.13c4.912-4.912,11.066-4.379,17.22-3.787.769.059,1.539.178,2.308.237,1.953.947,4.261,1.243,5.977,2.781,1.539,1.3,2.426,2.6.473,4.32a3.582,3.582,0,0,0-2.308-2.84,26.431,26.431,0,0,0-18.049-1.834c-1.775.414-4.024.828-3.965,3.551-.592-.414-1.184-.828-1.716-1.243A7.927,7.927,0,0,0,345.759,79.13Z" transform="translate(-141.14 -30.605)" fill="#1b68ac"/>
    <path id="Trazado_199" data-name="Trazado 199" d="M344.126,84c.592.414,1.184.828,1.716,1.243.414.237.828.473,1.184.71,0,.888.592,1.3,1.184,1.716.237.178.414.3.651.473a3.828,3.828,0,0,0,.533.473c-.059.651.118,1.42-.651,1.894-3.077-1.42-4.912-4.142-7.042-6.509Z" transform="translate(-139.507 -34.292)" fill="#31aacd"/>
    <path id="Trazado_200" data-name="Trazado 200" d="M118.017,78.907a29.035,29.035,0,0,0-16.333,1.6c-1.539.651-2.84,1.3-3.136,3.077-2.367-.237-2.367-1.775-1.775-3.491,1.953-.592,3.077-2.84,5.326-2.959,1.184-.414,2.545-.3,3.551-1.184,4.083.237,8.166-.592,12.19.533.178.059.414,0,.592.059.947.414,2.485.473,2.249,1.775C120.325,79.44,118.846,78.671,118.017,78.907Z" transform="translate(-39.384 -30.975)" fill="#1b68ac"/>
    <path id="Trazado_201" data-name="Trazado 201" d="M101.579,75.959c-2.249.178-3.314,2.367-5.326,2.959-2.367-1.953.473-3.077.651-4.675A8.041,8.041,0,0,0,100.928,73,5.081,5.081,0,0,0,101.579,75.959Z" transform="translate(-38.923 -29.802)" fill="#1e72b1"/>
    <path id="Trazado_202" data-name="Trazado 202" d="M99.9,89h.533Q100.166,89.533,99.9,89Z" transform="translate(-40.795 -36.333)" fill="#1b68ac"/>
    <path id="Trazado_203" data-name="Trazado 203" d="M105.479,75.142a4.634,4.634,0,0,1-.592-2.959c1.361-.414,2.781-.769,4.142-1.184v2.959C107.965,74.846,106.663,74.728,105.479,75.142Z" transform="translate(-42.823 -28.985)" fill="#227cb7"/>
    <path id="Trazado_204" data-name="Trazado 204" d="M223.961,97.793A7.17,7.17,0,0,0,225.085,93c2.426.237,4.675,1.184,7.16,1.361,2.722.237,2.545,2.663,2.189,4.616a3.842,3.842,0,0,0,.651,3.491,47.92,47.92,0,0,0,1.775,11.243v1.775c-1.953-.769-3.965-1.6-5.918-2.367-2.249-.828-4.616-1.124-6.805.059-1.657.888-2.308.3-2.722-1.243a43.84,43.84,0,0,1-1.716-8.285c.237-.355.533-.769.769-1.124C222.185,101.285,222.955,99.45,223.961,97.793Z" transform="translate(-89.702 -37.966)" fill="#227cb7"/>
    <path id="Trazado_205" data-name="Trazado 205" d="M248.8,121.447v-1.775c5.03-.769,5.03-.769,4.142-5.622v-.3a12.625,12.625,0,0,1-.414-6.154c2.19,1.3,1.716,4.083,3.373,5.563.473,2.663,2.9,4.734,2.367,7.693a3.809,3.809,0,0,0-1.065,2.663,55.806,55.806,0,0,1-3.255,14.557c-.769,2.367-.355,5.267-2.722,7.042-.237-4.32-.414-8.64-.651-13.019,0-.651.118-1.361-.533-1.775a20.138,20.138,0,0,0-1.184-7.693A7.935,7.935,0,0,0,248.8,121.447Z" transform="translate(-101.582 -43.927)" fill="#3a93c3"/>
    <path id="Trazado_206" data-name="Trazado 206" d="M263.167,118.161c.533-2.959-1.894-5.03-2.367-7.693.947-2.367.828-4.852.769-7.338,0-.769-.355-1.539.414-2.13,1.006,1.184,1.953,2.308,2.959,3.491.651,1.775,2.367,2.485,3.551,3.728a85.279,85.279,0,0,0-1.894,10.3c-.237,1.834.414,4.2-1.657,5.622C263.7,122.3,264.469,119.936,263.167,118.161Z" transform="translate(-106.481 -41.232)" fill="#2179b5"/>
    <path id="Trazado_207" data-name="Trazado 207" d="M272.213,84l.592.592c-.473,2.426-3.491,3.255-3.551,5.858l-.592.592c-1.834-.178-1.834,1.124-1.775,2.367h-4.793c-1.243-2.071-.059-4.438-.947-6.569-.355-.828.592-1.124,1.3-1.065a9.585,9.585,0,0,1,2.249.533C269.195,87.787,269.195,87.787,272.213,84Z" transform="translate(-106.591 -34.292)" fill="#1e72b1"/>
    <path id="Trazado_208" data-name="Trazado 208" d="M251.718,114.326v.3c.888,4.852.888,4.852-4.142,5.622A51.208,51.208,0,0,1,245.8,109c1.716.059,1.953,1.657,2.722,2.663C249.469,112.787,250.12,114.089,251.718,114.326Z" transform="translate(-100.357 -44.498)" fill="#2488bc"/>
    <path id="Trazado_209" data-name="Trazado 209" d="M262.8,100h4.793c.177,1.539.414,3.136.592,4.675-.828-.178-1.6-.414-2.426-.592-1.006-1.184-1.953-2.308-2.959-3.491Z" transform="translate(-107.297 -40.824)" fill="#1c61a3"/>
    <path id="Trazado_210" data-name="Trazado 210" d="M197.859,114.061c2.13.178,3.61-.118,1.953-2.722a1.118,1.118,0,0,1,.414-1.539v.059a1.111,1.111,0,0,0,1.184.592v.533c.473,1.953,2.6.828,3.551,1.894-.592,3.432-3.432,6.213-2.781,10.06l-1.42-1.775c-.769-2.071-1.3-4.261-2.959-5.918A7.927,7.927,0,0,0,197.859,114.061Z" transform="translate(-80.761 -44.825)" fill="#1c61a3"/>
    <path id="Trazado_211" data-name="Trazado 211" d="M222.777,100.794c-1.006,1.657-1.775,3.491-3.432,4.734-.828-.237-1.657-.414-2.545-.651C218.043,100.735,219.759,99.61,222.777,100.794Z" transform="translate(-88.518 -40.967)" fill="#1a5da6"/>
    <path id="Trazado_212" data-name="Trazado 212" d="M211.534,107.9c.828.237,1.657.414,2.545.651a12.673,12.673,0,0,1-.769,1.124c-1.657,1.479-4.024,1.3-5.858,2.426-.947-1.065-3.077.059-3.551-1.894C207.1,111.51,209.285,109.557,211.534,107.9Z" transform="translate(-83.252 -44.049)" fill="#1b4587"/>
    <path id="Trazado_213" data-name="Trazado 213" d="M205.959,101.762c0-.414-.059-.769-.059-1.184a5.846,5.846,0,0,1,2.84-.592c2.545-.178,2.959.888,1.894,2.959-1.184-.059-2.367-.059-3.551-.118A1.074,1.074,0,0,0,205.959,101.762Z" transform="translate(-84.068 -40.811)" fill="#1a5da6"/>
    <path id="Trazado_214" data-name="Trazado 214" d="M203.083,110.592A1.2,1.2,0,0,1,201.9,110c.414.059.769.059,1.184.118Z" transform="translate(-82.435 -44.907)" fill="#1d6eb0"/>
    <path id="Trazado_215" data-name="Trazado 215" d="M259.857,130c1.243,1.775.533,4.142,1.775,5.918.237,1.953-.237,4.379,2.959,4.142a24.548,24.548,0,0,1-.118,11.362c-.414-1.775-.769-3.136-1.124-4.5-.118-.533-.414-.888-1.006-.769-.473.059-.592.473-.651.828a21.682,21.682,0,0,0-.592,7.279c.178,1.775,1.361,2.071,2.781,1.479,1.243-.473,1.716,0,2.13,1.124.533,1.361,1.3,2.663,1.894,3.965,1.953,4.024,1.243,5.444-3.314,6.391a26.2,26.2,0,0,0-9.35-8.817c-1.657-.947-2.84-2.13-2.485-4.261,2.367-1.775,1.953-4.675,2.722-7.042a55.276,55.276,0,0,0,3.255-14.557A4.124,4.124,0,0,1,259.857,130Z" transform="translate(-103.171 -53.071)" fill="#2482b9"/>
    <path id="Trazado_216" data-name="Trazado 216" d="M270.859,133.108c-3.2.178-2.722-2.249-2.959-4.142,2.071-1.42,1.42-3.728,1.657-5.622a85.28,85.28,0,0,1,1.894-10.3c1.065-.3,1.953.355,2.959.592,1.42,3.077,3.551,5.8,3.551,9.409.177,1.361.414,2.781.592,4.142C276.658,132.694,276.125,133.108,270.859,133.108Z" transform="translate(-109.379 -46.12)" fill="#1e72b1"/>
    <path id="Trazado_217" data-name="Trazado 217" d="M259.9,309.243c1.361-.414,2.722-.828,4.142-1.243C263.1,310.012,261.675,310.13,259.9,309.243Z" transform="translate(-106.113 -125.738)" fill="#2193c1"/>
    <path id="Trazado_218" data-name="Trazado 218" d="M212.628,300.9c.355.414.71.828,1.006,1.243-.888.059-1.775.059-1.834-1.184A4.192,4.192,0,0,1,212.628,300.9Z" transform="translate(-86.477 -122.84)" fill="#2193c1"/>
    <path id="Trazado_219" data-name="Trazado 219" d="M196.428,157.693c-1.894.414-4.32-1.894-5.385,0-.71,1.3,2.308,2.545,2.959,4.32.178.533.473,1.065.651,1.6H176.9c1.184-2.485,4.024-2.426,5.977-3.846,1.479-1.065,4.5-1.184,4.32-2.9-.178-1.894-3.136-1.065-4.675-1.775-1.894-.888-4.734.178-5.622-2.722a1.638,1.638,0,0,1,.533-.059c4.793-.414,9.35-2.308,14.261-2.308.059,1.243.947,2.071,1.6,3.018C194.416,154.5,196.191,155.563,196.428,157.693Z" transform="translate(-72.229 -61.236)" fill="#1e72b1"/>
    <path id="Trazado_220" data-name="Trazado 220" d="M192.061,145c-4.852,0-9.409,1.894-14.261,2.308.473-1.953,2.426-2.308,3.669-3.491,1.124-1.065,2.781-1.42,3.491-2.959h0a1.2,1.2,0,0,0,1.184-.592c2.84-.533,5.385-2.13,8.285-2.367h.592a8.143,8.143,0,0,0,2.189,2.308c1.361.947,2.781,1.775,3.136,3.61A26,26,0,0,0,192.061,145Z" transform="translate(-72.597 -56.296)" fill="#248ebf"/>
    <path id="Trazado_221" data-name="Trazado 221" d="M180.409,134.592c.592-.178,1.184-.414,1.775-.592.473,1.42.533,3.077,2.367,3.551v.592a7.158,7.158,0,0,0-1.124.059c-2.84.828-5.74,1.479-8.344,2.959H173.9c.888-1.894,2.781-2.781,4.261-4.083C178.93,136.308,180.232,135.953,180.409,134.592Z" transform="translate(-71.004 -54.704)" fill="#2179b5"/>
    <path id="Trazado_222" data-name="Trazado 222" d="M175.9,143.959c2.6-1.479,5.5-2.13,8.344-2.959v1.184h0c-2.012.059-3.728,1.124-5.622,1.539C177.675,143.9,176.847,144.965,175.9,143.959Z" transform="translate(-71.821 -57.562)" fill="#2193c1"/>
    <path id="Trazado_223" data-name="Trazado 223" d="M190.267,131.427c-1.834-.473-1.894-2.19-2.367-3.551.178-.592.355-1.184.592-1.775,2.485-1.834,3.077-5.148,5.385-7.1,1.657,1.657,2.13,3.846,2.959,5.918a4.71,4.71,0,0,0-2.367,4.734C193.226,130.835,191.687,131.013,190.267,131.427Z" transform="translate(-76.72 -48.581)" fill="#1d6eb0"/>
    <path id="Trazado_224" data-name="Trazado 224" d="M205.942,103a1.113,1.113,0,0,1,1.124,1.065,1.038,1.038,0,0,1-1.184-.533A.835.835,0,0,1,205.942,103Z" transform="translate(-84.051 -42.049)" fill="#1c61a3"/>
    <path id="Trazado_225" data-name="Trazado 225" d="M202.8,103.1c.237.178.473.3.71.473C203.273,103.4,203.037,103.278,202.8,103.1Z" transform="translate(-82.803 -42.09)" fill="#1c61a3"/>
    <path id="Trazado_226" data-name="Trazado 226" d="M274.309,111.12c-1.006-.178-1.894-.828-2.959-.592-1.184-1.243-2.959-1.953-3.551-3.728.828.178,1.6.414,2.426.592,2.485.118,3.669,2.722,6.45,2.84C275.789,111.3,274.96,111,274.309,111.12Z" transform="translate(-109.338 -43.6)" fill="#1b4587"/>
    <path id="Trazado_227" data-name="Trazado 227" d="M280.226,100.6a1.411,1.411,0,0,0,.651,1.361c-1.361,1.657-3.314.178-4.852.947-.355-1.006-.769-1.953-1.124-2.959C276.675,100.183,278.569,99.295,280.226,100.6Z" transform="translate(-112.237 -40.77)" fill="#1a5da6"/>
    <path id="Trazado_228" data-name="Trazado 228" d="M280.9,108.794c2.012.059,3.551-1.243,5.326-1.894C285.338,110.1,283.149,109.563,280.9,108.794Z" transform="translate(-114.686 -43.641)" fill="#2482b9"/>
    <path id="Trazado_229" data-name="Trazado 229" d="M273.416,95.592l.592-.592c1.124,1.006-.414,2.012,0,2.959C272.055,97.6,273.12,96.479,273.416,95.592Z" transform="translate(-111.404 -38.783)" fill="#1a5da6"/>
    <path id="Trazado_230" data-name="Trazado 230" d="M285.919,112.218v.178a.356.356,0,0,1-.237.059c-.237-.118-.237-.237.059-.355C285.741,112.159,285.8,112.218,285.919,112.218Z" transform="translate(-116.569 -45.764)" fill="#1b4587"/>
    <path id="Trazado_231" data-name="Trazado 231" d="M198.891,126.345a4.617,4.617,0,0,1,2.367-4.734l1.42,1.775c-.651-3.787,2.189-6.569,2.781-10.06,1.834-1.124,4.2-.947,5.858-2.426a43.841,43.841,0,0,0,1.716,8.285c.414,1.539,1.065,2.13,2.722,1.243,2.189-1.184,4.557-.888,6.805-.059,2.012.769,3.965,1.6,5.918,2.367v1.184c-1.243.118-1.479,1.065-1.716,2.012a16.633,16.633,0,0,0-.651,5.681,26.212,26.212,0,0,0-7.1.592c-.828-2.485-1.6-4.971-2.6-7.4-.592-1.539-1.42-3.255-3.432-3.077-3.787.414-7.1,1.894-9.35,5.148h-.592c-.059-.651.237-1.657-1.124-1.243C200.9,125.931,199.9,126.108,198.891,126.345Z" transform="translate(-81.201 -45.274)" fill="#2179b5"/>
    <path id="Trazado_232" data-name="Trazado 232" d="M206.9,134.434c2.249-3.255,5.563-4.734,9.35-5.148,2.012-.237,2.84,1.539,3.432,3.077.947,2.426,1.716,4.912,2.6,7.4-3.61.059-3.787.237-2.84,3.61q.8,2.929,1.775,5.858c.651,2.012,0,2.545-1.953,2.071a22.9,22.9,0,0,0-2.9-.3c-1.361-3.551-1.6-7.515-4.142-10.652-.3-1.834-1.775-2.663-3.136-3.61A6.784,6.784,0,0,1,206.9,134.434Z" transform="translate(-84.476 -52.771)" fill="#1e72b1"/>
    <path id="Trazado_233" data-name="Trazado 233" d="M210.185,147.995c2.545,3.077,2.781,7.1,4.142,10.652a26.466,26.466,0,0,1-7.693-1.775c-.178-2.13-2.012-3.2-3.136-4.734-.651-.888-1.6-1.716-1.6-3.018A24.4,24.4,0,0,1,210.185,147.995Z" transform="translate(-82.435 -60.415)" fill="#2179b5"/>
    <path id="Trazado_234" data-name="Trazado 234" d="M244.864,140.693a15.293,15.293,0,0,1,.651-5.681c.237-.947.533-1.894,1.716-2.012a19.964,19.964,0,0,1,1.184,7.693Z" transform="translate(-99.954 -54.296)" fill="#227cb7"/>
    <path id="Trazado_235" data-name="Trazado 235" d="M353.551,90.673c-.237-.178-.414-.3-.651-.473C353.078,90.318,353.314,90.5,353.551,90.673Z" transform="translate(-144.08 -36.823)" fill="#2193c1"/>
    <path id="Trazado_236" data-name="Trazado 236" d="M196.042,136.443c1.006-.237,2.012-.414,3.018-.71,1.361-.414,1.006.592,1.124,1.243-2.9.237-5.444,1.834-8.285,2.367v-1.184C193.32,137.8,194.859,137.627,196.042,136.443Z" transform="translate(-78.353 -55.372)" fill="#2193c1"/>
    <path id="Trazado_237" data-name="Trazado 237" d="M190.984,141v.592a1.2,1.2,0,0,1-1.184.592V141Z" transform="translate(-77.496 -57.562)" fill="#31aacd"/>
  </g>
</svg>
