<svg xmlns="http://www.w3.org/2000/svg" width="77.663" height="55.142" viewBox="0 0 77.663 55.142">
  <g id="svg-quote" transform="translate(-115.493 -289.644)">
    <path id="Trazado_249" data-name="Trazado 249" d="M129.81,316.153v1.071a13.3,13.3,0,0,1-1.142,5.915,16.238,16.238,0,0,1-3.948,4.758l-2.6,2.285a11.9,11.9,0,0,0-3.007,3.485,8.549,8.549,0,0,0-.9,4.007,7.517,7.517,0,0,0,2.372,5.785,9.032,9.032,0,0,0,6.392,2.2,17.022,17.022,0,0,0,6.739-1.331l1.851-.781,1.071,2.285a30.032,30.032,0,0,1-5.366,1.851,20.974,20.974,0,0,1-4.411.463q-5.322,0-8.345-2.863a11.49,11.49,0,0,1-2.444-11.367,10.572,10.572,0,0,1,1.692-2.951,41.416,41.416,0,0,1,4.96-4.6,17.9,17.9,0,0,0,2.849-2.849A8.8,8.8,0,0,0,127,320.8a15.226,15.226,0,0,0,.434-4.208v-.434Zm-3.731-8.648q0-2.834,2.315-2.835,2.371,0,2.371,2.835a2.982,2.982,0,0,1-.68,2.2,2.32,2.32,0,0,1-1.691.665,2.239,2.239,0,0,1-1.649-.665A3.023,3.023,0,0,1,126.079,307.5Z" transform="translate(0 -3.357)" fill="#1769aa"/>
    <path id="Trazado_250" data-name="Trazado 250" d="M171.488,321.046a7.574,7.574,0,0,1-2.863,6.117,15.078,15.078,0,0,1-7.926,2.988V336.8h-2.343v-6.539a36.4,36.4,0,0,1-5.8-.634,21.809,21.809,0,0,1-4.99-1.424v-2.9a26.508,26.508,0,0,0,5.192,1.719,24.74,24.74,0,0,0,5.6.705v-14.32a27.334,27.334,0,0,1-6.218-2.48,8.022,8.022,0,0,1-2.951-2.932,8.464,8.464,0,0,1-.925-4.116A7.493,7.493,0,0,1,151,298a13.388,13.388,0,0,1,7.361-2.946v-5.412H160.7V295a31.02,31.02,0,0,1,10.153,2.03l-.955,2.537a26.961,26.961,0,0,0-9.2-2.03v13.7q6.161,1.861,8.475,4.06A7.569,7.569,0,0,1,171.488,321.046Zm-20.074-17.167a5.21,5.21,0,0,0,1.649,3.974,13.193,13.193,0,0,0,5.293,2.622v-12.77a8.945,8.945,0,0,0-5.191,2.143A5.414,5.414,0,0,0,151.414,303.879Zm16.892,17.054a4.993,4.993,0,0,0-1.822-3.96,15.533,15.533,0,0,0-5.785-2.692v13.276a9.908,9.908,0,0,0,5.568-2.113A5.665,5.665,0,0,0,168.306,320.933Z" transform="translate(-5.399)" fill="#1769aa"/>
    <path id="Trazado_251" data-name="Trazado 251" d="M190.174,324.026v-1.07a13.459,13.459,0,0,1,1.084-5.814,16.217,16.217,0,0,1,4.007-4.831l2.631-2.284a11.966,11.966,0,0,0,2.98-3.5,8.586,8.586,0,0,0,.9-3.991,7.466,7.466,0,0,0-2.415-5.843,9.141,9.141,0,0,0-6.349-2.169,17.416,17.416,0,0,0-4.281.506,22.706,22.706,0,0,0-4.31,1.635l-1.07-2.314a29.3,29.3,0,0,1,5.336-1.851,21.1,21.1,0,0,1,4.439-.463q5.294,0,8.33,2.849a10.208,10.208,0,0,1,3.037,7.824,9.7,9.7,0,0,1-1.981,6.175,16.1,16.1,0,0,1-2.271,2.43q-1.33,1.171-2.95,2.531a19.673,19.673,0,0,0-2.849,2.849,8.71,8.71,0,0,0-1.447,2.7,14.933,14.933,0,0,0-.447,4.223v.4Zm-.955,8.649q0-2.834,2.314-2.835,2.372,0,2.372,2.835t-2.372,2.835Q189.219,335.509,189.219,332.674Z" transform="translate(-11.335 -0.338)" fill="#1769aa"/>
  </g>
</svg>
