<svg xmlns="http://www.w3.org/2000/svg" width="69.133" height="47.609" viewBox="0 0 69.133 47.609">
  <g id="svg-mercado_libre" transform="translate(-269.549 -168.002)">
    <path id="Trazado_258" data-name="Trazado 258" d="M270.049,189.157v-1.5c.234-.042.289-.21.338-.416a18.853,18.853,0,0,1,6.769-10.262c4.755-3.929,10.316-6.068,16.262-7.408,1.808-.408,3.692-.41,5.445-1.073h3a6.52,6.52,0,0,0,4.2,0h2.7c.263.572.785.273,1.183.322,6.742.829,13.118,2.714,18.779,6.579,3.986,2.722,7.121,6.139,8.628,10.858.368,1.153.125,2.433.825,3.5v3.293c-.524.231-.411.747-.464,1.147a19.273,19.273,0,0,1-7.31,12.566c-5.378,4.447-11.735,6.54-18.559,7.514-1.12.16-2.382-.234-3.381.625h-9c-.159-.535-.64-.4-1-.426a39.423,39.423,0,0,1-14.247-3.6c-5.983-2.793-10.766-6.781-13.154-13.173-.354-.947-.264-2.054-1.018-2.854v-1.8A5.621,5.621,0,0,0,270.049,189.157Zm34.337,21.789a61.172,61.172,0,0,0,7.309-.593c7.278-1.174,14.046-3.549,19.54-8.69a15.477,15.477,0,0,0,5.368-10.991c.022-.628.186-1.383-.96-1.1a101.638,101.638,0,0,0-11.451,3.489c-.688.259-1.007.5-.8,1.395a2.66,2.66,0,0,1-2.03,3.461,3.541,3.541,0,0,0-2.634,2.006c-1.163,2.084-4.329,1.438-5.61,3.673-.31.541-1.222.6-1.95.536a1.237,1.237,0,0,0-.981.222c-1.493,1.219-3.166,1.07-4.823.463a2.008,2.008,0,0,0-1.924.108,3.862,3.862,0,0,1-5.1-1.031,2.065,2.065,0,0,0-1.376-.661c-2.523-.582-4.576-2.2-6.889-3.263a1.223,1.223,0,0,1-.519-.712c-.263-.849-.844-1.031-1.671-1.135a2.769,2.769,0,0,1-2.545-2.858c.2-1.733-.845-2.229-2.057-2.757a64.509,64.509,0,0,0-10.74-3.241c-.772-.187-1.127-.028-1.112.819a14.873,14.873,0,0,0,.312,3.266c1.286,5.306,4.848,8.843,9.286,11.605C288.023,209.31,295.8,210.82,304.386,210.947ZM295.5,179.8c-2.142.228-3.84,1.076-5.746.823a46.159,46.159,0,0,1-10.219-2.742,1.479,1.479,0,0,0-1.76.2,20.225,20.225,0,0,0-5.42,7.23c-.93,2.23-.865,2.383,1.52,2.907a42.748,42.748,0,0,1,11.155,3.733,2.107,2.107,0,0,0,2.292.109,2.833,2.833,0,0,1,2.99.216,1.833,1.833,0,0,0,1.759.227,3.63,3.63,0,0,1,3.9.8,1.912,1.912,0,0,0,1.667.624c2.147-.054,3.286.917,3.679,3.08a.894.894,0,0,0,.771.875c2.561.7,3.379,1.942,3.157,4.583-.031.372-.268.807.289,1.013a4.1,4.1,0,0,0,2.889.364c.7-.24.95-.52.371-1.132s-1.188-1.214-1.722-1.871c-.272-.334-1.026-.681-.5-1.166.448-.415.882.223,1.234.531.825.723,1.6,1.5,2.423,2.226a1.85,1.85,0,0,0,2.681-.155c.922-.783.416-1.474-.2-2.146-.811-.879-1.621-1.76-2.4-2.665-.258-.3-.877-.628-.416-1.057.418-.388.8.148,1.116.439,1.106,1.007,2.171,2.062,3.315,3.024a2.357,2.357,0,0,0,3.217-.469c.9-1,.433-1.786-.378-2.565-1.259-1.21-2.484-2.456-3.706-3.7-.247-.252-.791-.533-.371-.944.34-.333.729.032,1.033.291.19.162.367.338.554.5,1.351,1.183,2.666,2.412,4.069,3.531a2.077,2.077,0,0,0,2.973-.289,1.6,1.6,0,0,0-.233-2.5c-4.461-3.757-8.749-7.723-13.457-11.187a3.982,3.982,0,0,0-4.992-.08c-1.531,1.026-3.015,2.122-4.547,3.145a5.189,5.189,0,0,1-5.27.25c-1.519-.674-1.711-1.7-.6-2.922C293.487,181.941,294.4,180.98,295.5,179.8Zm10.044-3.182a17.61,17.61,0,0,0-4.129.758c-3,1-4.9,3.354-6.932,5.53-.427.457-1.434.843-1.036,1.572.386.706,1.4.675,2.193.666a4.013,4.013,0,0,0,2.382-.773c.8-.593,1.623-1.162,2.4-1.785,4-3.2,5.917-3.215,9.9-.032.234.187.468.374.7.567,3.388,2.865,6.786,5.718,10.152,8.61a1.618,1.618,0,0,0,1.979.379,60.776,60.776,0,0,1,11.925-3.824c1.272-.271,1.358-.745.993-1.812a19.166,19.166,0,0,0-5.056-7.645,1.718,1.718,0,0,0-2.2-.41,19.867,19.867,0,0,1-16.8-.169A19.013,19.013,0,0,0,305.542,176.615Zm-25.732.038c3.774,1.165,7.192,2.709,10.929,2.633a14.851,14.851,0,0,0,7.19-1.688c4.771-2.86,9.46-2.673,14.321-.681a35.359,35.359,0,0,0,3.645,1.342c4.369,1.253,8.54.572,12.718-1.168C317.681,168.225,293.655,166.908,279.81,176.653Zm10.383,19.753a4.423,4.423,0,0,1,.11.532c.144,2.443,1.174,3.257,3.569,2.707.708-.162.669.167.789.656a2.142,2.142,0,0,0,3.132,1.434c.62-.306.934-.614,1.157.426a2.471,2.471,0,0,0,3.128,1.974,2.538,2.538,0,0,0,1.989-2.878,2.5,2.5,0,0,0-3.211-2.077c-1.178.267-.95-.22-.836-.969.279-1.836-.328-2.781-1.791-3.046a3.041,3.041,0,0,0-2.2.654c-1.252-2.7-2.7-2.957-5.239-.99-.977-1.753-2.068-2.292-3.257-1.56a1.9,1.9,0,0,0-.8,2.588C287.253,197.06,288.5,197.261,290.194,196.406Z" transform="translate(0 0)" fill="#1c69a4" stroke="#1c69a4" stroke-miterlimit="10" stroke-width="1"/>
    <ellipse id="Elipse_2" data-name="Elipse 2" cx="34.067" cy="23.304" rx="34.067" ry="23.304" transform="translate(270.049 168.502)" fill="none" stroke="#1c69a4" stroke-miterlimit="10" stroke-width="1"/>
  </g>
</svg>
