<svg xmlns="http://www.w3.org/2000/svg" width="65.097" height="64.23" viewBox="0 0 65.097 64.23">
  <g id="svg-handshake" transform="translate(0.001 -0.5)">
    <path id="Trazado_252" data-name="Trazado 252" d="M64.831,113.625,53.935,100.1a1.316,1.316,0,0,0-1.7-.285L45.2,104.091H36.03a1.319,1.319,0,0,0-.351.056L28.565,106.1l-7.381-1.929-7.172-4.358a1.317,1.317,0,0,0-1.678.263L.282,114.342a1.182,1.182,0,0,0,.161,1.69l6.316,5.194,5.667,7.3a4.179,4.179,0,0,0,.1,6,4.582,4.582,0,0,0,2.736,1.238,4.172,4.172,0,0,0,1.268,3.707,4.59,4.59,0,0,0,3.19,1.263h.048c0,.029,0,.058,0,.088a4.19,4.19,0,0,0,1.321,3.048,4.591,4.591,0,0,0,3.19,1.262,4.813,4.813,0,0,0,.7-.053,4.211,4.211,0,0,0,1.3,2.624,4.666,4.666,0,0,0,6.379,0l.69-.659.29.223a4.667,4.667,0,0,0,6.326-.05,4.2,4.2,0,0,0,1.319-3.115,4.615,4.615,0,0,0,3.26-1.259,4.2,4.2,0,0,0,1.319-3.114,4.6,4.6,0,0,0,3.26-1.262,4.2,4.2,0,0,0,1.319-3.115,4.611,4.611,0,0,0,3.26-1.26,4.174,4.174,0,0,0,.593-5.4l4.138-8.28,6.221-5.115a1.182,1.182,0,0,0,.179-1.669ZM13.6,102.459l5.157,3.133L7.542,118.652l-4.5-3.7Zm.728,27.689,1.556-1.487c.047-.045.1-.088.148-.128a2,2,0,0,1,1.063-.412h.033c.056,0,.111-.007.167-.007a1.989,1.989,0,0,1,1.4.586,1.857,1.857,0,0,1-.086,2.653L17.1,132.794a2.025,2.025,0,0,1-2.769,0,1.815,1.815,0,0,1,0-2.646Zm4,7.591a1.812,1.812,0,0,1,0-2.646l3.018-2.884a2.048,2.048,0,0,1,2.226-.367,1.847,1.847,0,0,1,1.079,1.932,1.942,1.942,0,0,1-.583,1.127l-2.97,2.838a2.023,2.023,0,0,1-2.769,0Zm4.557,4.4a1.812,1.812,0,0,1,0-2.646l3.018-2.884a2.05,2.05,0,0,1,2.367-.3,1.835,1.835,0,0,1,.935,1.891,1.946,1.946,0,0,1-.58,1.1l-2.97,2.838a2.023,2.023,0,0,1-2.769,0Zm5.191,3.834a1.814,1.814,0,0,1,0-2.646l1.556-1.487c.047-.045.1-.087.147-.127l0,0a1.993,1.993,0,0,1,.868-.385l.022,0c.055-.009.11-.017.166-.022l.068,0c.046,0,.091-.005.137,0a1.988,1.988,0,0,1,1.4.586,1.707,1.707,0,0,1,.126.142,1.868,1.868,0,0,1-.221,2.519l-1.5,1.435a2.025,2.025,0,0,1-2.769,0ZM51.9,132.359a2.025,2.025,0,0,1-2.769,0,1.142,1.142,0,0,0-.087-.074l-8.208-7.925a1.319,1.319,0,0,0-1.805-.009,1.181,1.181,0,0,0-.009,1.725l8.3,8.01,0,0a1.815,1.815,0,0,1,0,2.646,2.023,2.023,0,0,1-2.769,0L39,131.376a1.319,1.319,0,0,0-1.8-.009,1.182,1.182,0,0,0-.009,1.725l5.465,5.276a1.182,1.182,0,0,0,.089.1,1.815,1.815,0,0,1,0,2.646,2.027,2.027,0,0,1-2.77,0l-3.029-2.925a1.319,1.319,0,0,0-1.805-.009,1.181,1.181,0,0,0-.009,1.725l2.945,2.843a1.1,1.1,0,0,0,.09.1,1.815,1.815,0,0,1,0,2.646,2.025,2.025,0,0,1-2.769,0,2.805,2.805,0,0,0-.29-.221c-.083-.061-.105-.1-.064-.2s.105-.187.148-.286.084-.224.121-.337a4.211,4.211,0,0,0,.165-1.876,4.27,4.27,0,0,0-1.907-2.968,4.606,4.606,0,0,0-1.9-.7,4.216,4.216,0,0,0-1.093-3.925,4.576,4.576,0,0,0-3.215-1.348h-.135a4.2,4.2,0,0,0-1.207-3.049,4.578,4.578,0,0,0-3.215-1.348,4.8,4.8,0,0,0-1.089.111,4.228,4.228,0,0,0-1.492-2.614,4.6,4.6,0,0,0-2.885-1.046,4.645,4.645,0,0,0-3.082,1.108l-4.934-6.353,11.8-13.741,3.762.983-4.913,8.284a4.114,4.114,0,0,0-.423,3.274,4.317,4.317,0,0,0,2.124,2.6q.1.053.2.1l.015.007a4.685,4.685,0,0,0,3.213.3,4.457,4.457,0,0,0,2.722-2.029l3.193-5.384,5.7.386L51.9,129.712a1.815,1.815,0,0,1,0,2.646Zm.529-5.591L38.183,113.16a1.114,1.114,0,0,0-.084-.074,1.31,1.31,0,0,0-.728-.28l-6.98-.473a1.313,1.313,0,0,0-1.2.615L25.6,119a1.935,1.935,0,0,1-1.182.881,2.026,2.026,0,0,1-1.487-.176,1.875,1.875,0,0,1-.922-1.129,1.784,1.784,0,0,1,.184-1.421l4.792-8.081,1.942-.534.038-.012,7.248-2H44.97L55.9,119.809Zm5.15-8.873-10.11-12.287,5.16-3.135L62.071,114.2Zm0,0" transform="translate(0 -84.226)" fill="#1769aa"/>
    <path id="Trazado_253" data-name="Trazado 253" d="M301.654,42.2a1.5,1.5,0,0,0,1.067-.442l10.308-10.308a1.509,1.509,0,0,0-2.134-2.134L300.587,39.621a1.509,1.509,0,0,0,1.067,2.576Zm0,0" transform="translate(-263.441 -24.106)" fill="#1769aa"/>
    <path id="Trazado_254" data-name="Trazado 254" d="M133.946,41.756a1.509,1.509,0,1,0,2.134-2.134L125.772,29.313a1.509,1.509,0,1,0-2.134,2.134Zm0,0" transform="translate(-108.131 -24.107)" fill="#1769aa"/>
    <path id="Trazado_255" data-name="Trazado 255" d="M247.47,52.247a1.509,1.509,0,0,0,1.509-1.509V42.208a1.509,1.509,0,1,0-3.018,0v8.531A1.509,1.509,0,0,0,247.47,52.247Zm0,0" transform="translate(-214.922 -34.157)" fill="#1769aa"/>
    <path id="Trazado_256" data-name="Trazado 256" d="M246.1,2.582A1.508,1.508,0,1,0,248.409.808,1.508,1.508,0,0,0,246.1,2.582Zm0,0" transform="translate(-214.944)" fill="#1769aa"/>
  </g>
</svg>
