<svg xmlns="http://www.w3.org/2000/svg" width="15" height="15" viewBox="0 0 15 15">
  <path id="Trazado_296" data-name="Trazado 296" d="M4.53-.687v-.47H12.97v.47A4.181,4.181,0,0,1,12.82.435a4.11,4.11,0,0,1-.427,1.008,4.323,4.323,0,0,1-.662.851,4.323,4.323,0,0,1-.851.662,4.11,4.11,0,0,1-1.008.427,4.181,4.181,0,0,1-1.122.15,4.181,4.181,0,0,1-1.122-.15,4.11,4.11,0,0,1-1.008-.427,4.323,4.323,0,0,1-.851-.662,4.323,4.323,0,0,1-.662-.851A4.11,4.11,0,0,1,4.68.435,4.181,4.181,0,0,1,4.53-.687ZM6.174-3.732a1.15,1.15,0,0,0-.46.091,1.21,1.21,0,0,0-.372.248,1.134,1.134,0,0,0-.251.372A1.157,1.157,0,0,0,5-2.565H4.53V-2.8a1.585,1.585,0,0,1,.13-.639,1.673,1.673,0,0,1,.352-.522,1.628,1.628,0,0,1,.522-.349,1.621,1.621,0,0,1,.639-.127,1.62,1.62,0,0,1,.639.127,1.628,1.628,0,0,1,.522.349,1.628,1.628,0,0,1,.349.522,1.621,1.621,0,0,1,.127.639v.235h-.47a1.133,1.133,0,0,0-.091-.453A1.181,1.181,0,0,0,7-3.39a1.181,1.181,0,0,0-.372-.251A1.133,1.133,0,0,0,6.174-3.732Zm5.152,0a1.133,1.133,0,0,0-.453.091,1.181,1.181,0,0,0-.372.251,1.181,1.181,0,0,0-.251.372,1.133,1.133,0,0,0-.091.453h-.47V-2.8a1.621,1.621,0,0,1,.127-.639,1.628,1.628,0,0,1,.349-.522,1.638,1.638,0,0,1,.518-.349,1.613,1.613,0,0,1,.642-.127,1.62,1.62,0,0,1,.639.127,1.628,1.628,0,0,1,.522.349,1.673,1.673,0,0,1,.352.522,1.585,1.585,0,0,1,.13.639v.235H12.5a1.157,1.157,0,0,0-.091-.457,1.134,1.134,0,0,0-.251-.372,1.2,1.2,0,0,0-.375-.248A1.157,1.157,0,0,0,11.326-3.732ZM8.28,1.185V3.031q.117.013.235.023t.235.01q.117,0,.235-.01t.235-.023V1.185Zm-1.409,0v1.37a3.848,3.848,0,0,0,.939.385V1.185Zm2.817,0V2.939a3.677,3.677,0,0,0,.933-.385V1.185Zm1.4-1.872v1.4h.939v-1.4Zm-2.811,0v1.4H9.22v-1.4Zm-1.409,0v1.4h.939v-1.4Zm-1.4,0v1.4h.939v-1.4Zm4.22,0v1.4h.933v-1.4Zm1.4,1.872v1.05a3.536,3.536,0,0,0,.9-1.05ZM6.409,2.235V1.185h-.9A3.536,3.536,0,0,0,6.409,2.235ZM8.75-9.126a7.394,7.394,0,0,1,2,.267,7.474,7.474,0,0,1,1.79.757,7.549,7.549,0,0,1,1.516,1.174,7.549,7.549,0,0,1,1.174,1.516,7.474,7.474,0,0,1,.757,1.79,7.394,7.394,0,0,1,.267,2,7.394,7.394,0,0,1-.267,2,7.474,7.474,0,0,1-.757,1.79,7.549,7.549,0,0,1-1.174,1.516A7.549,7.549,0,0,1,12.536,4.85a7.474,7.474,0,0,1-1.79.757,7.394,7.394,0,0,1-2,.267,7.394,7.394,0,0,1-2-.267,7.474,7.474,0,0,1-1.79-.757A7.549,7.549,0,0,1,3.448,3.676,7.549,7.549,0,0,1,2.274,2.16,7.474,7.474,0,0,1,1.517.37a7.394,7.394,0,0,1-.267-2,7.394,7.394,0,0,1,.267-2,7.474,7.474,0,0,1,.757-1.79A7.549,7.549,0,0,1,3.448-6.928,7.549,7.549,0,0,1,4.964-8.1a7.474,7.474,0,0,1,1.79-.757A7.394,7.394,0,0,1,8.75-9.126Zm0,14.061A6.436,6.436,0,0,0,10.495,4.7a6.641,6.641,0,0,0,1.568-.662A6.534,6.534,0,0,0,13.39,3.014a6.534,6.534,0,0,0,1.024-1.327A6.641,6.641,0,0,0,15.076.119a6.436,6.436,0,0,0,.235-1.745,6.436,6.436,0,0,0-.235-1.745,6.641,6.641,0,0,0-.662-1.568A6.534,6.534,0,0,0,13.39-6.266,6.534,6.534,0,0,0,12.063-7.29a6.641,6.641,0,0,0-1.568-.662A6.437,6.437,0,0,0,8.75-8.187a6.437,6.437,0,0,0-1.745.235,6.641,6.641,0,0,0-1.568.662A6.534,6.534,0,0,0,4.11-6.266,6.534,6.534,0,0,0,3.086-4.939a6.641,6.641,0,0,0-.662,1.568,6.436,6.436,0,0,0-.235,1.745A6.436,6.436,0,0,0,2.424.119a6.641,6.641,0,0,0,.662,1.568A6.534,6.534,0,0,0,4.11,3.014,6.534,6.534,0,0,0,5.437,4.038,6.641,6.641,0,0,0,7.005,4.7,6.436,6.436,0,0,0,8.75,4.935Z" transform="translate(-1.25 9.126)" fill="#5e35b1"/>
</svg>
