<svg id="user_settings" xmlns="http://www.w3.org/2000/svg" width="23" height="23" viewBox="0 0 23 23">
  <path id="Trazado_287" data-name="Trazado 287" d="M0,0H23V23H0Z" fill="none"/>
  <path id="Trazado_288" data-name="Trazado 288" d="M18.258,12.391a6.716,6.716,0,0,0,.057-.891,5.484,5.484,0,0,0-.066-.891l1.921-1.5a.466.466,0,0,0,.114-.578L18.466,5.386a.462.462,0,0,0-.558-.209l-2.262.91A6.684,6.684,0,0,0,14.112,5.2l-.341-2.408a.458.458,0,0,0-.454-.389H9.683a.449.449,0,0,0-.445.389L8.9,5.2a6.831,6.831,0,0,0-1.533.891L5.1,5.177a.452.452,0,0,0-.558.209L2.736,8.533a.432.432,0,0,0,.114.578l1.921,1.5a5.282,5.282,0,0,0-.019,1.782l-1.921,1.5a.466.466,0,0,0-.114.578l1.817,3.147a.462.462,0,0,0,.558.209l2.262-.91a6.684,6.684,0,0,0,1.533.891l.341,2.408a.465.465,0,0,0,.454.389h3.634a.442.442,0,0,0,.445-.389L14.1,17.8a6.489,6.489,0,0,0,1.533-.891l2.262.91a.452.452,0,0,0,.558-.209l1.817-3.147a.439.439,0,0,0-.114-.578ZM11.5,14.913A3.413,3.413,0,1,1,14.907,11.5,3.42,3.42,0,0,1,11.5,14.913Z" fill="#fff"/>
</svg>
